<?xml version="1.0" encoding="UTF-8"?>
<!DOCTYPE svg PUBLIC "-//W3C//DTD SVG 1.1//EN" "http://www.w3.org/Graphics/SVG/1.1/DTD/svg11.dtd">
<!-- Creator: CorelDRAW 2021.5 -->
<svg xmlns="http://www.w3.org/2000/svg" xml:space="preserve" width="210mm" height="297mm" version="1.1" style="shape-rendering:geometricPrecision; text-rendering:geometricPrecision; image-rendering:optimizeQuality; fill-rule:evenodd; clip-rule:evenodd"
viewBox="0 0 21000 29700"
 xmlns:xlink="http://www.w3.org/1999/xlink"
 xmlns:xodm="http://www.corel.com/coreldraw/odm/2003">
 <defs>
  <style type="text/css">
   <![CDATA[
    .fil0 {fill:#FEFEFE}
   ]]>
  </style>
 </defs>
 <g id="Layer_x0020_1">
  <metadata id="CorelCorpID_0Corel-Layer"/>
  <g id="_1509286840800">
   <path class="fil0" d="M18360.61 6933.71l151.79 7.09 1.69 341.36 233.18 -0.36 -0.22 120.51 -386.45 -4.05 0.01 -464.55zm-4268.59 0.6l145.6 3.86 -3.45 462.48 -145.74 0.58 3.59 -466.92zm-3466.68 3.03l147.99 -1.75 4.54 465.42 -149.24 1.05 -3.29 -464.72zm-1003.44 -1.37l143.75 1.66 -0.64 464.21 -149.4 -0.2 6.29 -465.67zm4684.59 464.71c4.6,-48.9 137.97,-419.65 165.63,-466.17l164.48 1.84c28.92,38.52 159.61,409.73 167.58,465.86l-145.66 0.97 -34.71 -64.86c-203.9,4.24 -136.18,-4.22 -178.86,63.97l-138.46 -1.61zm-5687.39 1.52l-139.15 0.78c7.71,-69.85 132.52,-394.76 168.41,-467.34l162.38 -0.17c30.76,45.23 157.23,397.47 171.67,468.1l-146.13 -0.53c-22.56,-33.98 -7,-30.76 -38.32,-63.01 -194.04,0.53 -125.28,-7.05 -178.86,62.17zm9322.47 -462.74c403.99,-105.25 433.03,402.08 178.85,458.71 -314.51,70.06 -393.45,-191.64 -318.84,-354.88 27.32,-59.77 68.56,-85.21 139.99,-103.83zm-718.21 311.37c-97.16,-393.4 434.9,-407.86 488.62,-161.85 36.26,166 -37.59,283.02 -168.28,310.43 -160.62,33.66 -290.58,-28.13 -320.34,-148.58zm-5775.14 147.34l-1.69 -459.23c225.92,-28.32 445.49,-10.92 446.7,222.25 1.27,246.16 -203.03,270.45 -445.01,236.98zm-4011.39 -447.61c38.94,-17.4 93.19,-12.22 137,-9.64 4.69,188.15 -37.67,356.19 87.53,356.41 123.29,0.22 66.4,-229.6 81.31,-360.33l142.22 -0.86c11.6,79.13 18.77,268.87 1.02,335.7 -48.98,184.46 -391.58,178.24 -446.91,22.3 -25.47,-71.78 -20.34,-279.11 -2.17,-343.58zm-115.44 540.82c-208.95,4.48 -146.23,0.38 -211.77,-59.33 -50.23,-45.77 -110.76,-11.12 -184.88,-70.8 -103.7,-83.48 -117.79,-277.29 -11.57,-372.51 111.83,-100.27 475.97,-104.66 430.49,236.64 -12.9,96.87 -63.75,98.37 -97.08,166 28.03,43.68 56.78,53.52 74.81,100zm9496.99 -90l-146.94 0.43 -4.38 -465.99 150.61 -1.18 6.87 171.71 157.26 0.2 6.99 -171.48 145.45 0.1 2.14 462.73 -144.94 4.12 -3.95 -176.85 -165.99 0.09 -3.12 176.12zm-4862.89 -188.87c-48.82,-361.16 466.73,-370.49 499.68,-89.71 43.55,371.13 -461.8,370 -499.68,89.71zm721.11 185.66l-140.26 2.26 1 -459.52c150.95,-28.54 150.85,22.15 290.29,178.34 31.95,35.79 21.36,11.15 24.39,34.57l11.86 -217.55 131.97 -0.86 4.53 465.67c-144.05,5 -114.32,14.55 -185.63,-65.94 -36.17,-40.85 -87.86,-111.12 -135.42,-139.58l-2.73 202.61zm2194.6 -463.47c142.11,-0.9 118.24,-10.94 188.41,71.97 36.3,42.9 83.81,109.4 134.76,138.28l0.65 -208.69 138.41 3.63 -1.5 460.38 -133.2 -1.07c-46.97,-56.26 -141.28,-171.88 -189.92,-210.55l-5.64 213.69 -135.41 -2.71 3.44 -464.93zm-3984.76 1.48c197.39,-1.61 109.45,3.9 324.02,222.88l7.23 -223.41 132.2 3.11 -2.46 459.5c-221.46,29.43 -150.37,-85.39 -325.06,-210.23l-3.77 214.29 -137.31 -1.64 5.15 -464.5zm-1839.35 0.76c146.78,-2.83 120.47,-6.05 192.3,76.8 44,50.75 87.24,102.09 128.52,142.28l8.75 -220.26 130.29 4.09 -0.82 456.99c-129.36,24.6 -135.61,2.31 -195.92,-70.6 -28.9,-34.94 -92.19,-111.17 -127.36,-137.41l-3.67 214.11 -138.42 -2.14 6.33 -463.86zm-1048.5 0.22c178.26,-11.62 450.02,-43.82 432.65,160.08 -5.84,68.56 -42.79,80.86 -81.51,116.71l89.16 189.64 -151.98 -1.36c-53.42,-54.78 -52.75,-155.8 -127.75,-166.61 -45.44,68.66 -4.44,-17.65 -14.23,41.21l-4.12 125.67 -148.35 -1.37 6.13 -463.97zm8299.33 325.82c84.34,122.21 165.37,-48.18 165.64,-48.56l125.38 -0.59c10.11,249.21 -456.1,292.01 -463.04,-39.46 -7.11,-339.32 461.17,-316.29 465.03,-47.3l-127.34 3.45c-24.05,-30 -9.54,-15.31 -27.78,-44.18 -11.76,-18.61 -13.43,-23.33 -26.86,-38.89 -59.98,-3.5 -105.43,-4.31 -121.17,52.56 -13.42,48.44 -11.17,128.9 10.14,162.97zm-3189.68 -328.16l391.84 1.84 0.77 109.45c-47.52,1.54 -94.9,1.99 -142.4,0.94 -110.31,-2.46 -109.92,-1.71 -103.93,37.71 6.91,45.52 105.96,13.38 217.63,28.98l-4.45 105.83c-217.7,13.4 -210.14,-37.58 -214.55,56.83l258.14 15.3 -2.67 110.71 -404.57 -1.72 4.19 -465.87zm-2917.7 277.2l126.49 0.62c1.76,271.48 -477.94,280.2 -468.09,-50.28 10.37,-348.1 504.33,-270.03 463.02,-32.92l-130.48 1.43c-26.32,-48.68 -16,-97.56 -104.91,-86.8 -65.53,7.94 -73.91,61.66 -72.79,128.87 2.25,133.94 103.47,181.8 176.72,55.49 1.25,-2.19 3.92,-6.45 4.96,-8.21 1.04,-1.78 3.06,-5.69 5.08,-8.2zm5723.99 78.94c-13.13,-92.03 -94.6,-34.42 -207.81,-100.18 -67.24,-39.06 -90.41,-143.7 -31.53,-204.45 73.54,-75.88 386.23,-109.92 379.3,99.32l-127.52 -0.91c-29.37,-36.2 -52.06,-68.4 -121.52,-38.31 1.6,52.59 31.02,47.79 87.07,59.44 41.58,8.64 84.74,16.61 117.17,35.99 71.99,42.99 81.42,147.35 20.78,212.64 -79.54,85.65 -416.19,86.59 -390.28,-109.52l124.08 -3.49 33.85 58.51c55.36,3.2 74.39,8.94 116.41,-9.04zm-2071.9 -1.8c-0.15,-58.03 -25.29,-47.76 -89.39,-62.14 -172.33,-38.66 -233.64,-141.16 -146.2,-238.79 77.84,-86.95 364.88,-103.65 385.66,91.46 -53.07,11.03 -107.49,16.2 -142.72,-12.36 -0.04,-0.03 -30.16,-64.95 -113.79,-20.9 3.71,70.23 135.6,55.98 204.28,94.46 100.31,56.22 121.08,306.52 -223.79,261.75 -104.68,-13.58 -133.82,-55.26 -147.1,-157.6 99.84,-0.79 117.64,-10.58 150.43,27.79 0.98,1.17 14.31,25.05 18.37,29.99 45.99,0.12 67.33,8.3 104.25,-13.66zm2035.57 -3785.25c360.1,-63.05 692.6,81.81 837.57,288.18 96.38,137.21 124.94,246.92 131.64,444.02 12.56,368.67 42.81,1383.37 -27.48,1646.4 -74.92,280.4 -310.92,468.08 -627.53,509.05 -557.72,72.16 -976.98,-207.48 -980.4,-737.24 -2.55,-394.84 -54.45,-1342.26 29.09,-1644.83 92.56,-335.22 332.72,-452.28 637.11,-505.58zm-9213.97 936.21c0,-287.14 27.56,-500.46 173.34,-682.98 287.94,-360.46 961.99,-334.78 1283.87,-32.85 141.58,132.82 203.63,355.72 203.63,613.61l0 1149.85c0,160.7 -15.92,386.5 -87.4,500.46 -78.81,125.64 -199.2,157.98 -357.08,216.48 27.07,214.08 150.59,87.14 299.08,157.9 125.09,59.6 142.91,141.03 145.58,312.33l-664.35 0.99c-86.02,0 -189.08,-34.1 -230.61,-75.82 -54.03,-54.28 -49.75,-153.48 -55.8,-252.05 -133.33,-29.07 -217.98,-25.94 -333.75,-85.86 -333.1,-172.41 -376.51,-469.68 -376.51,-876.64l0 -945.42zm11125.95 -938.58c160.82,-30.98 365.21,-0.89 506.88,51.02 344.15,126.07 433.31,373.17 455.89,695.85 22.66,324.07 30.22,1428.95 -31.07,1645.39 -77.82,274.78 -310.37,464.82 -637.54,499.04 -581.4,60.82 -966.43,-221.11 -969.24,-751.39 -2.09,-394.33 -45.69,-1348.09 33.26,-1641.33 40.7,-151.15 132.19,-265.87 231.69,-343.02 132.38,-102.67 222.85,-119.47 410.13,-155.56zm-6419.22 1322.38c249.75,320.91 177.63,172.22 353.14,343.2 -122.77,3.6 -239.5,-0.89 -354.59,10.41l1.45 -353.61zm1311.31 -252.37c79.89,-7.87 161.99,-3.96 242.39,-3.53 117.19,0.62 102.31,8.33 190.87,-34.55l-0.5 445.73c-30.83,-29.56 -61.43,-85.16 -95.56,-122.92 -143.53,-158.85 -285.2,-231.59 -337.2,-284.73zm-1233.72 767.21c303.03,23.33 663.92,-105.87 664.94,250.84 0.43,145.56 -30.73,343.17 133.75,334.48 149.5,-7.89 135.92,-188.02 128.91,-334.61 -8.72,-181.96 -60.98,-216.04 -163.26,-297.47 -264.64,-210.65 -610.47,-346.25 -730.6,-649 -78.6,-198.09 -78,-612.26 9.37,-804.97 198.67,-438.24 1003.32,-423.05 1325,-172.34 188.49,146.91 196.94,426.07 182.8,734.31 -443.4,-12.81 -642.85,89.86 -663.45,-266.28 -4.18,-72.11 -12.1,-147.45 -79.49,-163.37 -214.17,-50.58 -184.24,356.37 -97.47,456.28 61.96,71.35 186.6,138.38 277.62,195.51 325.16,204.13 567.39,360.4 612.63,765.91 29.43,263.72 32.69,613.08 -124.73,776.73 -147.97,153.82 -403.73,246.78 -689.87,234.21 -291.54,-12.82 -524.65,-95.43 -662.72,-274.35 -108.04,-140.02 -163.01,-558.32 -123.43,-785.88zm2561.85 1004.82c-290.24,-0.12 -684.08,76.67 -721.02,-221.54 -12.9,-104.12 -3.5,-1710.78 -3.5,-1860.79 0,-152.71 7.12,-322.91 -0.2,-473.43 -5.87,-120.93 -103.69,-219.66 -216.84,-241.24l941.48 0.62 -0.3 998.69 205.09 -0.67 0.99 -998.02c137.71,-4.59 337.26,-10.52 471.56,-0.63 137.47,10.12 228.41,87.59 242.76,216.34l2.9 1865.38c0,413.45 -71.83,607.94 212.57,714.92l-930.8 0.37 0.98 -1175.35 -205.67 -0.99 0 1176.34zm-3810.47 -3.22c-268.88,27.6 -600.53,44.76 -603.47,-303.14l0.41 -1814.3c0,-401.82 68.82,-567.21 -212.41,-676.73l806.08 1.66c25.04,35.64 262.08,792.26 304.34,933.26 22.37,74.72 73.32,253.2 104.51,306.59l-0.64 -1241.34c243.02,-0.4 601.32,-72.19 601.5,305.61l-0.44 1801.87c0,464.81 -67.51,562.02 207.72,689.75l-833.7 -3.18c-41.28,-71.98 -329.88,-1169.07 -373.58,-1223.71l-0.32 1223.66zm-1261.44 3.32c-384.08,0 -344.84,-290.96 -344.84,-498.2l0 -1673.65c0,-390.89 61.99,-502.99 -208.6,-623.5 190.17,-10.86 412.47,-4.78 605.24,-2.94 173.55,1.64 318.59,110.28 318.59,281.48l0 2171.92c0,107.74 -5.86,157.52 48.69,232.47 34.61,47.57 85.55,86.63 165.57,110.31l-584.65 2.11zm8043.21 -390.31c114.86,250.54 207.54,429.23 515.51,544.74 502.25,188.38 1217.06,55.12 1393.63,-563.83 72.6,-254.52 72.45,-1735.31 -5.81,-1999.42 -176.2,-594.63 -920.7,-730.59 -1405.1,-534.74 -310.25,125.44 -382.28,299.89 -501.55,541.01 -39.36,-184.62 -198.72,-361.95 -314.28,-442.44 -326.69,-227.59 -844.66,-241.44 -1190.2,-47.85 -264.38,148.1 -274.74,273.2 -362.02,391.44 -14.91,-234.15 -85.85,-369.79 -278.38,-442.17 -94.99,-35.71 -577.59,-40.97 -685.27,-9.12 -82.44,24.37 -41.27,-6.19 -136.71,-13.59l-537.55 -0.96c-119.3,0.02 -238.55,-0.07 -357.84,-0.27 -207.69,-0.33 -175.55,58.57 -242.62,117.45 -395.22,-259.12 -1220.54,-273.85 -1510.81,215.64 -83.5,-171.73 -140.03,-325.6 -443.7,-332.38 -525.71,-11.71 -458.32,1.83 -504.02,279.83 -106.21,-293.47 -50.84,-280.3 -416.08,-280.28 -121.63,0.01 -604.45,-15.18 -685.61,7.41 -64.63,17.99 -50.81,51 -131.32,22.11 -137.45,-49.35 -336.3,-29.52 -486.22,-29.52 -513.13,0 -408.28,-27.4 -521.85,165.4 -227.61,-226.24 -789.95,-288 -1142.66,-140.29 -333.6,139.72 -529.68,442.9 -533.18,910.77 -2.41,322.65 -17.64,1167.17 17.05,1439.66 50.77,398.79 293.42,680.46 697.65,746.05 5.76,115.65 54.25,192.55 123.95,248.83 -148.95,27.22 -513.64,-22.3 -620.36,19.39 -25.06,64.16 -24.84,755.43 1.45,814.53 87.37,38.21 2708.87,15.14 3051.14,15.14l6106.92 0c183.05,0 2941.49,16.54 3045.78,-9.31 37.16,-83.07 17.38,-311.23 17.38,-425.19 0,-89.69 27.04,-348.9 -30.92,-400.74 -84.73,-27.25 -1110.53,-8.16 -1294.7,-8.16l-9127.11 0c38.48,-251.92 -38.72,-456.75 -211.29,-535.04l141.02 -178.93c9.46,209.91 112.9,357.17 259.87,427.47 166.76,79.75 429.69,47.55 633.11,47.57 106.26,0 234.9,14.77 325.55,-24.66 80.7,-35.08 39.8,22.53 274.9,24.13 76.24,0.51 278.41,8.51 341.21,-6.85 101.59,-24.82 106.91,-102.13 124.12,-210.04 37.49,106.48 48.78,200.83 173.51,214.85l792.1 2.16c243.05,0.65 189.73,-38.64 268.29,-119.25 239.43,149.04 501.63,207.53 843.88,168.19 275.41,-31.65 574.74,-187.18 665.85,-369.51 54.75,93.58 42.03,133.37 128.58,212.17 56.88,51.8 142.04,99.78 239.12,106.21l525.36 1.04c76.79,-4.99 69.37,-31.67 127.06,-15.95 96.71,26.38 225.39,16.98 331.97,16.98 114.99,0 229.97,-0.15 344.95,0 567.67,0.74 405.29,14.37 536.6,-151.53 315.33,284.94 1352.9,403.83 1629.65,-408.15z"/>
   <path class="fil0" d="M5119.31 4331.04l0.09 1361.13c-7.68,29.75 -398.53,251.47 -436.56,268.29 -54.32,24.06 -97.42,-21.36 -151.02,-52.16 -229.18,-131.72 -133.11,-142.12 -455.08,45.72 -30.86,17.99 -46.29,25.32 -73.63,40.41 -82.52,45.54 -65.27,28.38 -64.83,234.36 0.06,27.4 2.69,65.99 1.73,91.17 -1.93,51.58 11.8,58.26 -28.89,57.76l12.81 38.5c0.07,1.21 -0.41,4.74 -0.33,6l0.83 13.89c0.33,3.2 2.38,13.22 2.83,17.02l6.67 388.88c2.84,174.39 0.15,350.02 8.73,523.81 -1.77,1.4 -5.32,2.76 -5.95,3.23 -16.3,12.39 -18.09,-30.79 -3.8,29.3 0.57,2.4 1.73,6.26 2.29,9.03 4.09,20.49 4,43.17 7.46,55.42 6.71,23.9 -4.95,9.16 18.66,30.47 73.96,-24.39 231.89,-123.15 301.09,-165.81 100.03,-61.66 187.26,-109.45 291.77,-168.05 356.54,-199.96 179.42,-180.95 596.68,41.97 19.57,-21.72 -47.12,-41.97 36.29,-16.9 6.06,-54.02 -19.25,23.98 -23.82,-68.59 65.11,1.82 104.45,29.12 155.77,-9.99 7.5,-5.72 48.78,-40.81 59.5,-45.42 35.7,-15.4 47.17,-9.71 88.86,-9.71l0 -102.52 101.75 0c0,-95.56 -5.88,-195.76 14.16,-288.68 3.63,-16.91 8.17,-17.65 -11.88,-40.27 46.11,6.2 45.86,16.32 65.87,5.52 -45.11,-23.09 -47.05,1.64 -67.86,-49.39 79.13,15.74 117.5,56.81 154.85,61.9l-55.12 -28.13c40.74,-44.65 -29.99,-9.13 31.73,-14.67 -25.91,-34.22 -40.52,-29.89 -70.51,-59.74l470.16 -268.68c9.81,-223 9.45,-2445.44 -6.74,-2487.93 -2.51,2.56 -6.64,4.96 -8.68,6.32 -1.98,1.33 -6.11,4.45 -8.52,6.01l-414.9 233.42c-80.92,32.78 -446.52,268.87 -542.46,307.11z"/>
   <path class="fil0" d="M14010.4 6343.58l0 -1176.34 205.67 0.99 -0.98 1175.35 930.8 -0.37c-284.4,-106.98 -212.57,-301.47 -212.57,-714.92l-2.9 -1865.38c-14.35,-128.75 -105.29,-206.22 -242.76,-216.34 -134.3,-9.89 -333.85,-3.96 -471.56,0.63l-0.99 998.02 -205.09 0.67 0.3 -998.69 -941.48 -0.62c113.15,21.58 210.97,120.31 216.84,241.24 7.32,150.52 0.2,320.72 0.2,473.43 0,150.01 -9.4,1756.67 3.5,1860.79 36.94,298.21 430.78,221.42 721.02,221.54z"/>
   <path class="fil0" d="M7385.96 4286.81c0,-99.11 -16.82,-284.53 76.64,-314.39 147.49,-47.16 135.15,121.05 140.8,226.31l-3.17 1506.78c-5.4,104.12 -9.08,285.72 -161.23,208.64 -68.93,-34.92 -53.04,-230.52 -53.04,-324.19l0 -1303.15zm-721.73 153.31l0 945.42c0,406.96 43.41,704.23 376.51,876.64 115.77,59.92 200.42,56.79 333.75,85.86 6.05,98.57 1.77,197.77 55.8,252.05 41.53,41.72 144.59,75.82 230.61,75.82l664.35 -0.99c-2.67,-171.3 -20.49,-252.73 -145.58,-312.33 -148.49,-70.76 -272.01,56.18 -299.08,-157.9 157.88,-58.5 278.27,-90.84 357.08,-216.48 71.48,-113.96 87.4,-339.76 87.4,-500.46l0 -1149.85c0,-257.89 -62.05,-480.79 -203.63,-613.61 -321.88,-301.93 -995.93,-327.61 -1283.87,32.85 -145.78,182.52 -173.34,395.84 -173.34,682.98z"/>
   <path class="fil0" d="M10199.93 6340.36l0.32 -1223.66c43.7,54.64 332.3,1151.73 373.58,1223.71l833.7 3.18c-275.23,-127.73 -207.72,-224.94 -207.72,-689.75l0.44 -1801.87c-0.18,-377.8 -358.48,-306.01 -601.5,-305.61l0.64 1241.34c-31.19,-53.39 -82.14,-231.87 -104.51,-306.59 -42.26,-141 -279.3,-897.62 -304.34,-933.26l-806.08 -1.66c281.23,109.52 212.41,274.91 212.41,676.73l-0.41 1814.3c2.94,347.9 334.59,330.74 603.47,303.14z"/>
   <path class="fil0" d="M17827.34 4312.36c0,-121.76 -23.04,-328.96 94.65,-344 80.6,-10.31 103.36,32.26 112.46,101.93 28.35,216.94 13.35,1213.29 13.35,1494.11 0,93.01 2.07,314.17 -60.48,348.56 -151.33,83.22 -156.82,-114.32 -156.82,-220.79l-3.16 -1379.81zm-37.16 -810.82c-187.28,36.09 -277.75,52.89 -410.13,155.56 -99.5,77.15 -190.99,191.87 -231.69,343.02 -78.95,293.24 -35.35,1247 -33.26,1641.33 2.81,530.28 387.84,812.21 969.24,751.39 327.17,-34.22 559.72,-224.26 637.54,-499.04 61.29,-216.44 53.73,-1321.32 31.07,-1645.39 -22.58,-322.68 -111.74,-569.78 -455.89,-695.85 -141.67,-51.91 -346.06,-82 -506.88,-51.02z"/>
   <path class="fil0" d="M16138.01 5679.39c-5.7,79.82 4.47,189.13 -47.23,227.75 -238.89,178.45 -167.16,-525.76 -167.16,-623.8 0,-359.85 -7.16,-727.16 1.2,-1086.04 1.89,-81.14 -1.63,-184.19 53.74,-216.92 224.31,-132.59 162.79,446.34 162.79,625.82 0,337.6 20.14,745.47 -3.34,1073.19zm-259.81 -2175.48c-304.39,53.3 -544.55,170.36 -637.11,505.58 -83.54,302.57 -31.64,1249.99 -29.09,1644.83 3.42,529.76 422.68,809.4 980.4,737.24 316.61,-40.97 552.61,-228.65 627.53,-509.05 70.29,-263.03 40.04,-1277.73 27.48,-1646.4 -6.7,-197.1 -35.26,-306.81 -131.64,-444.02 -144.97,-206.37 -477.47,-351.23 -837.57,-288.18z"/>
   <path class="fil0" d="M3961.32 7493.27c-23.61,-21.31 -11.95,-6.57 -18.66,-30.47 -3.46,-12.25 -3.37,-34.93 -7.46,-55.42 -0.56,-2.77 -1.72,-6.63 -2.29,-9.03 -14.29,-60.09 -12.5,-16.91 3.8,-29.3 0.63,-0.47 4.18,-1.83 5.95,-3.23 -8.58,-173.79 -5.89,-349.42 -8.73,-523.81l-6.67 -388.88c-0.45,-3.8 -2.5,-13.82 -2.83,-17.02l-0.83 -13.89c-0.08,-1.26 0.4,-4.79 0.33,-6l-12.81 -38.5 -1155.65 -672.77 -1.27 -1339.2c-10.61,-8.42 -19.04,-14.26 -30.15,-24.07l-12.64 -12.45c-1.78,-1.53 -4.44,-4.18 -6.27,-5.6l-74.69 -35.46c-102.11,-46.58 -77.92,-48.24 -120.64,-72.76 -27.54,-15.8 -35.74,-13.86 -68.38,-35.74l-249.69 -156.9c-134.78,-75.69 -288.38,-136.02 -407.43,-237.27l-1.03 2485.31 2140.11 1230.59c4.18,0.77 16.46,18.15 37.93,-8.13z"/>
   <path class="fil0" d="M1784.31 3785.5c22.96,-36.1 1141.07,-669.37 1205.61,-707.15 204.34,-119.67 400.48,-232.1 608.05,-350.42 354.28,-201.93 294.42,-228.02 461.71,-129.62 51.8,30.48 107.81,57.64 145.11,88.58l1889.08 1091.29c16.19,42.49 16.55,2264.93 6.74,2487.93l-470.16 268.68c29.99,29.85 44.6,25.52 70.51,59.74 50.11,7.76 336.8,180.95 399.34,219.12l1.14 464.54 -346.84 200.85c-59.66,35.07 -77.68,27.13 -131.92,-3.52 -160.82,-90.87 -314.85,-183.04 -471.82,-274.14 -417.26,-222.92 -240.14,-241.93 -596.68,-41.97 -104.51,58.6 -191.74,106.39 -291.77,168.05 -69.2,42.66 -227.13,141.42 -301.09,165.81 -21.47,26.28 -33.75,8.9 -37.93,8.13l-2140.11 -1230.59 1.03 -2485.31zm-16.65 2715.06c319.41,192.68 690.89,390.23 1011.79,585.51l1013.11 583.72c87.05,48.21 119.18,103.92 210.06,49.82 263.83,-157.04 546.76,-312.34 809.22,-467.72l375.78 211.06c593.78,338.18 424.88,338.65 751.49,148.65 94.97,-55.26 272.88,-169.97 367.67,-206.64l-0.95 -716.76 -227.02 -129.34c-20.78,-15.21 -14.43,-9.76 -29.46,-25.33 59.52,-27.45 216.5,-111.05 257.39,-151.46l-1.72 -2721.29c-41.83,-40.85 -494.27,-289.33 -586.6,-344.21 -198.34,-117.93 -390.19,-225.46 -591.5,-341.39l-1183.84 -682.86c-77.26,28.97 -229.11,124.66 -305.21,169.19 -105.45,61.68 -188.63,111.75 -290.36,168.94 -198.64,111.67 -393.1,222.44 -590.7,342.12 -127.66,77.32 -1111.99,627.37 -1183.49,688.21l0.14 2708.51 194.2 131.27z"/>
   <path class="fil0" d="M11448.55 5338.76c-39.58,227.56 15.39,645.86 123.43,785.88 138.07,178.92 371.18,261.53 662.72,274.35 286.14,12.57 541.9,-80.39 689.87,-234.21 157.42,-163.65 154.16,-513.01 124.73,-776.73 -45.24,-405.51 -287.47,-561.78 -612.63,-765.91 -91.02,-57.13 -215.66,-124.16 -277.62,-195.51 -86.77,-99.91 -116.7,-506.86 97.47,-456.28 67.39,15.92 75.31,91.26 79.49,163.37 20.6,356.14 220.05,253.47 663.45,266.28 14.14,-308.24 5.69,-587.4 -182.8,-734.31 -321.68,-250.71 -1126.33,-265.9 -1325,172.34 -87.37,192.71 -87.97,606.88 -9.37,804.97 120.13,302.75 465.96,438.35 730.6,649 102.28,81.43 154.54,115.51 163.26,297.47 7.01,146.59 20.59,326.72 -128.91,334.61 -164.48,8.69 -133.32,-188.92 -133.75,-334.48 -1.02,-356.71 -361.91,-227.51 -664.94,-250.84z"/>
   <path class="fil0" d="M4370.25 4453.84l227.81 123.04c41.98,24.25 51.97,20.51 55.81,67.65l-1.29 786.79c-199.18,115.43 -376.71,216.86 -565.98,327.01 -173.14,100.76 -127.72,94 -297.86,-2.36 -50.07,-28.37 -85.59,-47.84 -137.8,-78.83 -60.89,-36.16 -109.07,-50.27 -142.45,-93.29 -63.37,-10.46 -207.5,-117.44 -278.57,-148.32l-3.41 -830.33c188.58,-89.7 381.41,-221.32 577.95,-329.66 165.93,-91.48 110.66,-96.39 283.48,5.81 59.53,35.2 247.65,138.25 282.31,172.49zm-1616.05 -88.09l1.27 1339.2 1155.65 672.77c40.69,0.5 26.96,-6.18 28.89,-57.76 0.96,-25.18 -1.67,-63.77 -1.73,-91.17 -0.44,-205.98 -17.69,-188.82 64.83,-234.36 27.34,-15.09 42.77,-22.42 73.63,-40.41 321.97,-187.84 225.9,-177.44 455.08,-45.72 53.6,30.8 96.7,76.22 151.02,52.16 38.03,-16.82 428.88,-238.54 436.56,-268.29l-0.09 -1361.13c-36.02,-9.52 -899.62,-505.28 -937.81,-539.85 -50.18,-15.05 -144.08,-77.26 -188.26,-104.33 -79.53,-48.71 -103.56,-0.89 -184.02,44.47 -123.47,69.62 -246.77,138.58 -356.45,205.56 -118.26,72.21 -238.57,136.94 -356.24,206.16l-267.41 153.61c-45.59,24.6 -60.66,18.5 -74.92,69.09z"/>
   <path class="fil0" d="M1784.31 3785.5c119.05,101.25 272.65,161.58 407.43,237.27l249.69 156.9c32.64,21.88 40.84,19.94 68.38,35.74 42.72,24.52 18.53,26.18 120.64,72.76l74.69 35.46c1.83,1.42 4.49,4.07 6.27,5.6l12.64 12.45c11.11,9.81 19.54,15.65 30.15,24.07 14.26,-50.59 29.33,-44.49 74.92,-69.09l267.41 -153.61c117.67,-69.22 237.98,-133.95 356.24,-206.16 109.68,-66.98 232.98,-135.94 356.45,-205.56 80.46,-45.36 104.49,-93.18 184.02,-44.47 44.18,27.07 138.08,89.28 188.26,104.33 42.49,-32.36 8.73,-24.95 5.29,-41.3 -7,-33.32 -11.48,27.29 -15.42,-52.46 18.55,18.81 18.08,31.53 51.62,42.13 -3.53,-5.02 -11.01,-16.55 -16.08,-23.96 -1.84,-2.7 -8.77,-12.75 -10.6,-15.4l-77.13 -0.43c-13.75,-30.43 -15.38,-34.49 -87.93,-50.82 4.55,-11.63 6.98,-23.13 6.41,-26.19 -0.78,-4.25 -2.56,-10.55 -12.69,-25.81 99.32,3.44 41.83,14.16 109.75,41.77l1.05 -31.55c2.66,-28.43 -39.64,-5.99 11.85,-23.09l-1.49 -742.54c-0.32,-76.58 -13.1,-68.54 38.41,-74.39 -2.49,-1.93 -7.3,-7.32 -8.08,-4.89 -1.06,3.31 -6.04,0.14 -12.62,-9.58 -0.9,-1.31 -39.17,2.32 3.02,-14.68 28.11,-11.34 25.44,-0.28 72.91,9.34 -29.56,-46.33 -75.31,-21.28 -34.98,-60.45 -37.3,-30.94 -93.31,-58.1 -145.11,-88.58 -167.29,-98.4 -107.43,-72.31 -461.71,129.62 -207.57,118.32 -403.71,230.75 -608.05,350.42 -64.54,37.78 -1182.65,671.05 -1205.61,707.15z"/>
   <path class="fil0" d="M8938.49 6343.68l584.65 -2.11c-80.02,-23.68 -130.96,-62.74 -165.57,-110.31 -54.55,-74.95 -48.69,-124.73 -48.69,-232.47l0 -2171.92c0,-171.2 -145.04,-279.84 -318.59,-281.48 -192.77,-1.84 -415.07,-7.92 -605.24,2.94 270.59,120.51 208.6,232.61 208.6,623.5l0 1673.65c0,207.24 -39.24,498.2 344.84,498.2z"/>
   <path class="fil0" d="M4181.5 3791.19c38.19,34.57 901.79,530.33 937.81,539.85 95.94,-38.24 461.54,-274.33 542.46,-307.11l414.9 -233.42c2.41,-1.56 6.54,-4.68 8.52,-6.01 2.04,-1.36 6.17,-3.76 8.68,-6.32l-1889.08 -1091.29c-40.33,39.17 5.42,14.12 34.98,60.45 -47.47,-9.62 -44.8,-20.68 -72.91,-9.34 -42.19,17 -3.92,13.37 -3.02,14.68 6.58,9.72 11.56,12.89 12.62,9.58 0.78,-2.43 5.59,2.96 8.08,4.89 -51.51,5.85 -38.73,-2.19 -38.41,74.39l1.49 742.54c-51.49,17.1 -9.19,-5.34 -11.85,23.09l-1.05 31.55c-67.92,-27.61 -10.43,-38.33 -109.75,-41.77 10.13,15.26 11.91,21.56 12.69,25.81 0.57,3.06 -1.86,14.56 -6.41,26.19 72.55,16.33 74.18,20.39 87.93,50.82l77.13 0.43c1.83,2.65 8.76,12.7 10.6,15.4 5.07,7.41 12.55,18.94 16.08,23.96 -33.54,-10.6 -33.07,-23.32 -51.62,-42.13 3.94,79.75 8.42,19.14 15.42,52.46 3.44,16.35 37.2,8.94 -5.29,41.3z"/>
   <path class="fil0" d="M3737.65 4887.34c-54.49,3.8 -309.98,-182.33 -411.95,-213.28 -3.04,149.22 -19.74,590.95 6.53,710.91l304.28 182.63c68.07,24.29 171.42,90.63 237.49,131.05 91.83,56.21 144.92,-7.15 233.86,-58.75 83.6,-48.5 405.78,-224.99 449.85,-267.14l-4.15 -703.89c-84.39,28.8 -571.84,339.08 -611.69,340.67 -31.16,1.25 -124.7,-59.7 -155.32,-79.57 -43.88,-28.49 -20.48,-6.54 -48.9,-42.63z"/>
   <path class="fil0" d="M5150.86 7201.38c156.97,91.1 311,183.27 471.82,274.14 54.24,30.65 72.26,38.59 131.92,3.52l346.84 -200.85 -1.14 -464.54c-62.54,-38.17 -349.23,-211.36 -399.34,-219.12 -61.72,5.54 9.01,-29.98 -31.73,14.67l55.12 28.13c-37.35,-5.09 -75.72,-46.16 -154.85,-61.9 20.81,51.03 22.75,26.3 67.86,49.39 -20.01,10.8 -19.76,0.68 -65.87,-5.52 20.05,22.62 15.51,23.36 11.88,40.27 -20.04,92.92 -14.16,193.12 -14.16,288.68l-101.75 0 0 102.52c-41.69,0 -53.16,-5.69 -88.86,9.71 -10.72,4.61 -52,39.7 -59.5,45.42 -51.32,39.11 -90.66,11.81 -155.77,9.99 4.57,92.57 29.88,14.57 23.82,68.59 -83.41,-25.07 -16.72,-4.82 -36.29,16.9z"/>
   <path class="fil0" d="M3508.49 5583.85c81.29,-53.46 48.4,-2.93 89.7,6.17 -0.03,0.02 27.38,37.82 -51.11,-12.9 3.77,-4 10.11,-13.73 13.26,-9.75 2.93,3.7 8.86,-6.88 12.77,-8.4 84.5,-33.18 -9.4,-9.04 33.04,-8.69 12.86,0.1 18.46,10.03 30.36,17.32l-304.28 -182.63c-26.27,-119.96 -9.57,-561.69 -6.53,-710.91 101.97,30.95 357.46,217.08 411.95,213.28l31.02 -13.21c-21.56,-48.83 -5.36,19.53 -4.47,-10.29 31.87,23.15 22.07,20.3 67.8,27.87 -6.44,-22.04 -17.14,-16.73 -15.56,-42.55 3.01,-49.33 1.47,30.15 25.11,-55.67 5.48,-19.87 6.84,-37.1 12.09,-50.89 31.87,-12.84 49.77,-4.61 91.37,-31.75 32.52,-21.25 -11.38,-6.88 23.61,-20.19 57.86,-1.66 76.63,1.63 119.59,-13.25 108.32,-37.5 9.79,-26.57 116.48,-75.19 95.19,-43.39 31.2,-27.13 152.72,-53.9 -26.99,-27.5 -1.37,-12.51 -44.13,-24.4 -10.25,-2.86 -42.47,-2.16 -54.64,-2.37 0.15,-36.13 3.09,-35.22 26.89,-49.59 -1.59,1.69 -2.3,3.62 -2.12,6.61 0.18,2.76 -1.13,5.55 -0.74,6.38 18.35,38.85 81.31,25.19 93.88,9.6l-6.3 -40.71c-34.66,-34.24 -222.78,-137.29 -282.31,-172.49 -172.82,-102.2 -117.55,-97.29 -283.48,-5.81 -196.54,108.34 -389.37,239.96 -577.95,329.66l3.41 830.33c71.07,30.88 215.2,137.86 278.57,148.32z"/>
   <path class="fil0" d="M16138.01 5679.39c23.48,-327.72 3.34,-735.59 3.34,-1073.19 0,-179.48 61.52,-758.41 -162.79,-625.82 -55.37,32.73 -51.85,135.78 -53.74,216.92 -8.36,358.88 -1.2,726.19 -1.2,1086.04 0,98.04 -71.73,802.25 167.16,623.8 51.7,-38.62 41.53,-147.93 47.23,-227.75z"/>
   <path class="fil0" d="M17827.34 4312.36l3.16 1379.81c0,106.47 5.49,304.01 156.82,220.79 62.55,-34.39 60.48,-255.55 60.48,-348.56 0,-280.82 15,-1277.17 -13.35,-1494.11 -9.1,-69.67 -31.86,-112.24 -112.46,-101.93 -117.69,15.04 -94.65,222.24 -94.65,344z"/>
   <path class="fil0" d="M7385.96 4286.81l0 1303.15c0,93.67 -15.89,289.27 53.04,324.19 152.15,77.08 155.83,-104.52 161.23,-208.64l3.17 -1506.78c-5.65,-105.26 6.69,-273.47 -140.8,-226.31 -93.46,29.86 -76.64,215.28 -76.64,314.39z"/>
   <path class="fil0" d="M3737.65 4887.34c28.42,36.09 5.02,14.14 48.9,42.63 30.62,19.87 124.16,80.82 155.32,79.57 39.85,-1.59 527.3,-311.87 611.69,-340.67l4.15 703.89c-44.07,42.15 -366.25,218.64 -449.85,267.14 -88.94,51.6 -142.03,114.96 -233.86,58.75 -66.07,-40.42 -169.42,-106.76 -237.49,-131.05 -11.9,-7.29 -17.5,-17.22 -30.36,-17.32 -42.44,-0.35 51.46,-24.49 -33.04,8.69 -3.91,1.52 -9.84,12.1 -12.77,8.4 -3.15,-3.98 -9.49,5.75 -13.26,9.75 78.49,50.72 51.08,12.92 51.11,12.9 -41.3,-9.1 -8.41,-59.63 -89.7,-6.17 33.38,43.02 81.56,57.13 142.45,93.29 52.21,30.99 87.73,50.46 137.8,78.83 170.14,96.36 124.72,103.12 297.86,2.36 189.27,-110.15 366.8,-211.58 565.98,-327.01l1.29 -786.79c-3.84,-47.14 -13.83,-43.4 -55.81,-67.65l-227.81 -123.04 6.3 40.71c-12.57,15.59 -75.53,29.25 -93.88,-9.6 -0.39,-0.83 0.92,-3.62 0.74,-6.38 -0.18,-2.99 0.53,-4.92 2.12,-6.61 -23.8,14.37 -26.74,13.46 -26.89,49.59 12.17,0.21 44.39,-0.49 54.64,2.37 42.76,11.89 17.14,-3.1 44.13,24.4 -121.52,26.77 -57.53,10.51 -152.72,53.9 -106.69,48.62 -8.16,37.69 -116.48,75.19 -42.96,14.88 -61.73,11.59 -119.59,13.25 -34.99,13.31 8.91,-1.06 -23.61,20.19 -41.6,27.14 -59.5,18.91 -91.37,31.75 -5.25,13.79 -6.61,31.02 -12.09,50.89 -23.64,85.82 -22.1,6.34 -25.11,55.67 -1.58,25.82 9.12,20.51 15.56,42.55 -45.73,-7.57 -35.93,-4.72 -67.8,-27.87 -0.89,29.82 -17.09,-38.54 4.47,10.29l-31.02 13.21z"/>
   <path class="fil0" d="M7992.46 7401.13l148.35 1.37 4.12 -125.67c9.79,-58.86 -31.21,27.45 14.23,-41.21 75,10.81 74.33,111.83 127.75,166.61l151.98 1.36 -89.16 -189.64c38.72,-35.85 75.67,-48.15 81.51,-116.71 17.37,-203.9 -254.39,-171.7 -432.65,-160.08l-6.13 463.97z"/>
   <path class="fil0" d="M6999.12 7212.51c-31.78,-222.88 177.45,-214.66 190.67,-77.25 20.46,212.83 -172.97,201.39 -190.67,77.25zm322.27 278.87c-18.03,-46.48 -46.78,-56.32 -74.81,-100 33.33,-67.63 84.18,-69.13 97.08,-166 45.48,-341.3 -318.66,-336.91 -430.49,-236.64 -106.22,95.22 -92.13,289.03 11.57,372.51 74.12,59.68 134.65,25.03 184.88,70.8 65.54,59.71 2.82,63.81 211.77,59.33z"/>
   <path class="fil0" d="M12679.33 7195.56c47.56,28.46 99.25,98.73 135.42,139.58 71.31,80.49 41.58,70.94 185.63,65.94l-4.53 -465.67 -131.97 0.86 -11.86 217.55c-3.03,-23.42 7.56,1.22 -24.39,-34.57 -139.44,-156.19 -139.34,-206.88 -290.29,-178.34l-1 459.52 140.26 -2.26 2.73 -202.61z"/>
   <path class="fil0" d="M14867.76 7399.63l135.41 2.71 5.64 -213.69c48.64,38.67 142.95,154.29 189.92,210.55l133.2 1.07 1.5 -460.38 -138.41 -3.63 -0.65 208.69c-50.95,-28.88 -98.46,-95.38 -134.76,-138.28 -70.17,-82.91 -46.3,-72.87 -188.41,-71.97l-3.44 464.93z"/>
   <path class="fil0" d="M9040.76 7400.8l138.42 2.14 3.67 -214.11c35.17,26.24 98.46,102.47 127.36,137.41 60.31,72.91 66.56,95.2 195.92,70.6l0.82 -456.99 -130.29 -4.09 -8.75 220.26c-41.28,-40.19 -84.52,-91.53 -128.52,-142.28 -71.83,-82.85 -45.52,-79.63 -192.3,-76.8l-6.33 463.86z"/>
   <path class="fil0" d="M10881.29 7400.68l137.31 1.64 3.77 -214.29c174.69,124.84 103.6,239.66 325.06,210.23l2.46 -459.5 -132.2 -3.11 -7.23 223.41c-214.57,-218.98 -126.63,-224.49 -324.02,-222.88l-5.15 464.5z"/>
   <polygon class="fil0" points="16821.5,7225.26 16987.49,7225.17 16991.44,7402.02 17136.38,7397.9 17134.24,6935.17 16988.79,6935.07 16981.8,7106.55 16824.54,7106.35 16817.67,6934.64 16667.06,6935.82 16671.44,7401.81 16818.38,7401.38 "/>
   <path class="fil0" d="M11595.63 7046.07c64.61,1.14 95.53,-1.77 129.11,38.69 19.1,41.66 18.66,121.79 4.9,166.07 -47.55,51.43 -45.46,39.81 -133.68,38.8l-0.33 -243.56zm-147.41 352.1c241.98,33.47 446.28,9.18 445.01,-236.98 -1.21,-233.17 -220.78,-250.57 -446.7,-222.25l1.69 459.23z"/>
   <path class="fil0" d="M17932.85 7212.51c-22.92,-224.27 177.83,-210.75 191.26,-77.1 8,79.68 5.56,140.01 -59.12,159.59 -75.25,22.8 -125.77,-20.04 -132.14,-82.49zm8.72 -273.05c-71.43,18.62 -112.67,44.06 -139.99,103.83 -74.61,163.24 4.33,424.94 318.84,354.88 254.18,-56.63 225.14,-563.96 -178.85,-458.71z"/>
   <path class="fil0" d="M17418.74 7054c169.5,-74.72 184.34,195.64 94.1,236.75 -70.29,32 -130.16,-9.4 -140.42,-67.56 -11.5,-65.1 -8.79,-144.89 46.32,-169.19zm-195.38 196.83c29.76,120.45 159.72,182.24 320.34,148.58 130.69,-27.41 204.54,-144.43 168.28,-310.43 -53.72,-246.01 -585.78,-231.55 -488.62,161.85z"/>
   <path class="fil0" d="M12156.06 7055.26c153.45,-89.59 196.34,194.2 92.38,236.07 -158.17,63.71 -181.29,-184.15 -92.38,-236.07zm-200.57 157.25c37.88,280.29 543.23,281.42 499.68,-89.71 -32.95,-280.78 -548.5,-271.45 -499.68,89.71z"/>
   <path class="fil0" d="M8619.1 7402.2c53.58,-69.22 -15.18,-61.64 178.86,-62.17 31.32,32.25 15.76,29.03 38.32,63.01l146.13 0.53c-14.44,-70.63 -140.91,-422.87 -171.67,-468.1l-162.38 0.17c-35.89,72.58 -160.7,397.49 -168.41,467.34l139.15 -0.78z"/>
   <path class="fil0" d="M13104.05 7400.69l404.57 1.72 2.67 -110.71 -258.14 -15.3c4.41,-94.41 -3.15,-43.43 214.55,-56.83l4.45 -105.83c-111.67,-15.6 -210.72,16.54 -217.63,-28.98 -5.99,-39.42 -6.38,-40.17 103.93,-37.71 47.5,1.05 94.88,0.6 142.4,-0.94l-0.77 -109.45 -391.84 -1.84 -4.19 465.87z"/>
   <path class="fil0" d="M14306.49 7400.68l138.46 1.61c42.68,-68.19 -25.04,-59.73 178.86,-63.97l34.71 64.86 145.66 -0.97c-7.97,-56.13 -138.66,-427.34 -167.58,-465.86l-164.48 -1.84c-27.66,46.52 -161.03,417.27 -165.63,466.17z"/>
   <path class="fil0" d="M15914.53 7290.96c-42.02,17.98 -61.05,12.24 -116.41,9.04l-33.85 -58.51 -124.08 3.49c-25.91,196.11 310.74,195.17 390.28,109.52 60.64,-65.29 51.21,-169.65 -20.78,-212.64 -32.43,-19.38 -75.59,-27.35 -117.17,-35.99 -56.05,-11.65 -85.47,-6.85 -87.07,-59.44 69.46,-30.09 92.15,2.11 121.52,38.31l127.52 0.91c6.93,-209.24 -305.76,-175.2 -379.3,-99.32 -58.88,60.75 -35.71,165.39 31.53,204.45 113.21,65.76 194.68,8.15 207.81,100.18z"/>
   <path class="fil0" d="M13842.63 7289.16c-36.92,21.96 -58.26,13.78 -104.25,13.66 -4.06,-4.94 -17.39,-28.82 -18.37,-29.99 -32.79,-38.37 -50.59,-28.58 -150.43,-27.79 13.28,102.34 42.42,144.02 147.1,157.6 344.87,44.77 324.1,-205.53 223.79,-261.75 -68.68,-38.48 -200.57,-24.23 -204.28,-94.46 83.63,-44.05 113.75,20.87 113.79,20.9 35.23,28.56 89.65,23.39 142.72,12.36 -20.78,-195.11 -307.82,-178.41 -385.66,-91.46 -87.44,97.63 -26.13,200.13 146.2,238.79 64.1,14.38 89.24,4.11 89.39,62.14z"/>
   <path class="fil0" d="M7436.83 6950.56c-18.17,64.47 -23.3,271.8 2.17,343.58 55.33,155.94 397.93,162.16 446.91,-22.3 17.75,-66.83 10.58,-256.57 -1.02,-335.7l-142.22 0.86c-14.91,130.73 41.98,360.55 -81.31,360.33 -125.2,-0.22 -82.84,-168.26 -87.53,-356.41 -43.81,-2.58 -98.06,-7.76 -137,9.64z"/>
   <path class="fil0" d="M10190.54 7212.02c-2.02,2.51 -4.04,6.42 -5.08,8.2 -1.04,1.76 -3.71,6.02 -4.96,8.21 -73.25,126.31 -174.47,78.45 -176.72,-55.49 -1.12,-67.21 7.26,-120.93 72.79,-128.87 88.91,-10.76 78.59,38.12 104.91,86.8l130.48 -1.43c41.31,-237.11 -452.65,-315.18 -463.02,32.92 -9.85,330.48 469.85,321.76 468.09,50.28l-126.49 -0.62z"/>
   <path class="fil0" d="M16297.92 7262.98c-21.31,-34.07 -23.56,-114.53 -10.14,-162.97 15.74,-56.87 61.19,-56.06 121.17,-52.56 13.43,15.56 15.1,20.28 26.86,38.89 18.24,28.87 3.73,14.18 27.78,44.18l127.34 -3.45c-3.86,-268.99 -472.14,-292.02 -465.03,47.3 6.94,331.47 473.15,288.67 463.04,39.46l-125.38 0.59c-0.27,0.38 -81.3,170.77 -165.64,48.56z"/>
   <polygon class="fil0" points="18360.6,7398.26 18747.05,7402.31 18747.27,7281.8 18514.09,7282.16 18512.4,6940.8 18360.61,6933.71 "/>
   <path class="fil0" d="M12682.27 4571.55c52,53.14 193.67,125.88 337.2,284.73 34.13,37.76 64.73,93.36 95.56,122.92l0.5 -445.73c-88.56,42.88 -73.68,35.17 -190.87,34.55 -80.4,-0.43 -162.5,-4.34 -242.39,3.53z"/>
   <polygon class="fil0" points="10628.63,7402.06 10777.87,7401.01 10773.33,6935.59 10625.34,6937.34 "/>
   <polygon class="fil0" points="9615.61,7401.64 9765.01,7401.84 9765.65,6937.63 9621.9,6935.97 "/>
   <polygon class="fil0" points="14088.43,7401.23 14234.17,7400.65 14237.62,6938.17 14092.02,6934.31 "/>
   <path class="fil0" d="M11369.51 5177.53c115.09,-11.3 231.82,-6.81 354.59,-10.41 -175.51,-170.98 -103.39,-22.29 -353.14,-343.2l-1.45 353.61z"/>
   <path class="fil0" d="M17418.74 7054c-55.11,24.3 -57.82,104.09 -46.32,169.19 10.26,58.16 70.13,99.56 140.42,67.56 90.24,-41.11 75.4,-311.47 -94.1,-236.75z"/>
   <path class="fil0" d="M12156.06 7055.26c-88.91,51.92 -65.79,299.78 92.38,236.07 103.96,-41.87 61.07,-325.66 -92.38,-236.07z"/>
   <path class="fil0" d="M17932.85 7212.51c6.37,62.45 56.89,105.29 132.14,82.49 64.68,-19.58 67.12,-79.91 59.12,-159.59 -13.43,-133.65 -214.18,-147.17 -191.26,77.1z"/>
   <path class="fil0" d="M6999.12 7212.51c17.7,124.14 211.13,135.58 190.67,-77.25 -13.22,-137.41 -222.45,-145.63 -190.67,77.25z"/>
   <path class="fil0" d="M11595.96 7289.63c88.22,1.01 86.13,12.63 133.68,-38.8 13.76,-44.28 14.2,-124.41 -4.9,-166.07 -33.58,-40.46 -64.5,-37.55 -129.11,-38.69l0.33 243.56z"/>
  </g>
 </g>
</svg>
