<?xml version="1.0" encoding="UTF-8"?>
<!DOCTYPE svg PUBLIC "-//W3C//DTD SVG 1.1//EN" "http://www.w3.org/Graphics/SVG/1.1/DTD/svg11.dtd">
<!-- Creator: CorelDRAW 2021.5 -->
<svg xmlns="http://www.w3.org/2000/svg" xml:space="preserve" width="1000px" height="293px" version="1.1" style="shape-rendering:geometricPrecision; text-rendering:geometricPrecision; image-rendering:optimizeQuality; fill-rule:evenodd; clip-rule:evenodd"
viewBox="0 0 997.3 291.75"
 xmlns:xlink="http://www.w3.org/1999/xlink"
 xmlns:xodm="http://www.corel.com/coreldraw/odm/2003">
 <defs>
  <style type="text/css">
   <![CDATA[
    .fil1 {fill:none}
    .fil0 {fill:#FEFEFE}
   ]]>
  </style>
 </defs>
 <g id="Layer_x0020_1">
  <metadata id="CorelCorpID_0Corel-Layer"/>
  <g id="_1906894387248">
   <path class="fil0" d="M717.88 223.37l0 -69.07 12.08 0.06 -0.06 69.01 54.65 -0.03c-16.7,-6.24 -12.49,-17.77 -12.49,-41.97l-0.17 -109.52c-1.87,-16.78 -24.37,-13.25 -41.93,-12.67l-0.06 58.6 -12.05 0.04 0.02 -58.64 -55.27 -0.03c17.11,3.21 12.74,23.97 12.74,41.96 0,8.81 -0.55,103.13 0.2,109.25 2.17,17.44 23.55,13 42.34,13.01z"/>
   <path class="fil0" d="M328.92 102.61c0,-5.41 -0.98,-16.1 3.95,-18.26 8.79,-3.85 8.46,6.55 8.8,12.42 0.73,12.76 0.54,75.86 -0.15,89.13 -0.32,6.12 -0.53,16.79 -9.47,12.26 -4.06,-2.06 -3.13,-13.53 -3.13,-19.04l0 -76.51zm-42.36 9l0 55.51c0,14.8 1.48,30.49 8.47,40.29 9.31,13.06 21.63,13.7 33.24,16.21 0.54,8.95 -0.4,19.25 16.81,19.25l39 -0.05c-0.16,-10.06 -1.21,-14.83 -8.55,-18.33 -8.72,-4.16 -15.98,3.3 -17.56,-9.28 20.63,-7.64 26.1,-11.4 26.1,-42.09l0 -67.51c0,-15.15 -3.65,-28.23 -11.96,-36.03 -18.89,-17.72 -58.46,-19.23 -75.37,1.93 -8.56,10.72 -10.18,23.23 -10.18,40.1z"/>
   <path class="fil0" d="M494.15 223.18l0.02 -71.85c1.87,2.34 14.91,48.76 16.36,53.6 1.21,4.05 3.78,15.12 5.57,18.25l48.95 0.19c-6.48,-3 -11.88,-5.65 -12.22,-14.21 -0.8,-20.09 0.03,-58.12 0.03,-79.55 0,-17.51 0.03,-35.02 0.02,-52.53 0,-8.53 -3.51,-14.02 -9.66,-16.6 -6.17,-2.58 -18.15,-1.36 -25.65,-1.35l0.04 72.89c-3.23,-5.52 -20.99,-68.5 -24.01,-72.8l-47.33 -0.1c6.5,2.52 11.81,5.76 12.4,13.83 0.85,11.69 0.07,64.9 0.07,79.17 0,17.73 -0.17,35.54 -0.02,53.26 0.07,8.74 3.13,14.08 9.84,16.75 5.03,1.99 19.28,1.7 25.59,1.05z"/>
   <path class="fil0" d="M941.98 104.11c0,-7.15 -1.35,-19.32 5.56,-20.2 4.73,-0.61 6.07,1.89 6.6,5.98 1.67,12.73 0.79,71.25 0.79,87.73 0,5.46 0.12,18.45 -3.55,20.46 -8.89,4.89 -9.21,-6.71 -9.21,-12.96l-0.19 -81.01zm-2.18 -47.61c-17.22,3.32 -32.17,9.43 -37.68,29.28 -3.84,13.83 -2.51,47.72 -2.51,64.08 0,10.91 0.5,21.49 0.56,32.28 0.16,31.14 22.77,47.69 56.9,44.12 19.21,-2.01 32.86,-13.17 37.43,-29.3 3.6,-12.71 3.16,-77.58 1.83,-96.61 -1.33,-18.94 -6.56,-33.45 -26.77,-40.85 -8.32,-3.05 -20.32,-4.82 -29.76,-3z"/>
   <path class="fil0" d="M842.8 184.37c-0.33,4.68 0.26,11.11 -2.77,13.37 -4.69,3.5 -8.66,-0.14 -9.41,-4.58 -1.08,-6.38 -0.54,-87.26 -0.34,-95.81 0.09,-4.09 -0.28,-10.53 3.22,-12.71 4.84,-3.01 8.29,0.77 8.87,5.28 1.32,10.23 1.04,85.92 0.43,94.45zm-15.26 -127.73c-17.87,3.13 -31.97,10.01 -37.4,29.69 -4.91,17.76 -1.86,73.38 -1.71,96.57 0.2,31.1 24.82,47.52 57.56,43.28 18.59,-2.4 32.45,-13.42 36.84,-29.89 4.13,-15.44 2.35,-75.01 1.62,-96.66 -0.4,-11.57 -2.07,-18.01 -7.73,-26.07 -8.51,-12.12 -28.03,-20.62 -49.18,-16.92z"/>
   <path class="fil0" d="M567.46 164.37c-2.32,13.35 0.91,37.92 7.25,46.14 8.11,10.51 21.79,15.36 38.91,16.11 16.8,0.74 31.81,-4.72 40.5,-13.75 9.25,-9.61 9.05,-30.12 7.33,-45.61 -2.66,-23.8 -16.88,-32.98 -35.97,-44.96 -5.34,-3.36 -12.67,-7.3 -16.3,-11.48 -5.1,-5.87 -6.86,-29.77 5.72,-26.79 3.96,0.93 4.42,5.35 4.67,9.59 1.21,20.91 12.92,14.88 38.95,15.63 0.83,-18.1 0.33,-34.49 -10.73,-43.11 -18.88,-14.72 -66.13,-15.61 -77.8,10.12 -5.12,11.31 -5.16,35.63 -0.55,47.26 5.37,13.52 15.94,19.25 27.05,26.97 5.58,3.88 10.79,7.11 15.85,11.13 6.01,4.78 9.07,6.79 9.59,17.47 0.41,8.61 1.21,19.18 -7.57,19.65 -9.66,0.51 -7.83,-11.1 -7.86,-19.64 -0.06,-20.95 -21.25,-13.36 -39.04,-14.73z"/>
   <path class="fil0" d="M420.09 223.37l34.32 -0.12c-11.84,-3.48 -12.58,-11.24 -12.58,-20.13l0 -127.52c0,-10.05 -8.51,-16.43 -18.7,-16.52 -11.32,-0.11 -24.37,-0.47 -35.53,0.17 6.02,2.67 10.55,4.84 11.95,12.1 0.92,4.76 0.29,109.54 0.29,122.77 0,12.17 -2.3,29.25 20.25,29.25z"/>
   <path class="fil0" d="M93.94 272.5c3.04,-0.18 1.04,4.27 0.86,-1.42 -0.01,-0.11 -0.11,-0.43 -0.12,-0.54 -0.01,-0.11 -0.14,-0.37 -0.14,-0.57 1.92,-0.02 2.84,0.42 3.96,-0.73 2.21,-2.28 -0.95,-2.09 -1.01,-2.12l-5.24 -1.73c-0.16,-0.07 -0.38,-0.18 -0.53,-0.25 -0.15,-0.07 -0.41,-0.2 -0.53,-0.25 -0.12,-0.06 -0.37,-0.16 -0.54,-0.26l0.06 -11.03 -3.11 0.12 -8.99 -0.18c0,-10.7 -1.62,-1.71 -1.62,-11.87 -8.4,-0.22 -7.77,0.25 -8.54,-1.96 -1.99,-0.72 -1.3,0.73 -1.52,-3.48 -0.51,-9.46 0.79,-5 -1.3,-6.39 -2.97,-1.99 -2.65,2.08 -2.66,-6.26l-5.99 -0.28c0,-0.62 0.09,-3.3 0.02,-3.68 -0.46,-2.28 0.45,-1.44 -1.53,-2.19l0 -5.87 -4.5 -0.13c0,-4.23 0.44,-3.59 -0.97,-5.76 -3.8,-5.82 1.44,-5.95 -4.49,-6.13l-0.2 -5.68 -6.33 -0.54c-0.01,-4.14 0.42,-3.53 -0.97,-5.64 -1.53,-2.31 -1.41,-0.53 -1.57,-5.56l-2.95 -1.5 -0.01 -4.9 -4.5 -0.18 0 -5.87 -4.38 -0.13c0,-7.41 0.23,-5.9 -3.09,-6l-0.21 -5.68 -6.32 -0.66c-0.02,-8.3 -1.36,-3.67 -2.41,-8.07 -0.15,-0.62 -0.11,-2.31 -0.14,-3.02l-2.94 -1.5 -0.01 -4.87 -3.25 -0.22c-1.82,-2.15 -0.92,-14.49 -0.92,-18.22 -5.02,1.29 0.51,8.09 -3.04,12.24 -2.59,-5.55 0.04,-50.87 -2,-58.69l-0.2 -0.75 -0.07 144.97 69.9 40.2c3.97,2.35 7.88,4.68 11.9,6.92 3.64,2.02 8.92,6.04 12.14,6.31z"/>
   <path class="fil0" d="M6.23 139.52l0.08 -6.99 8.92 0.81 0 5.84 4.45 -0.02 0.21 5.82 4.88 0.59c0,11.27 2.31,0.45 2.46,11.52l6.36 0.66 0 4.87c0.18,0.11 0.46,0.18 0.59,0.25 3.24,1.71 1.84,0.4 2.38,2.17 0.14,0.46 0.06,3.59 0.06,4.3 3.98,0.39 2.61,0.78 2.62,5.76l6.38 0.63c-0.05,5.54 1,5.57 0.96,11.18l4.65 0.46 0 5.8c7.37,0.27 2.8,-0.7 5.22,6.11l0.77 5.5 4.6 0.3 0.01 6.04 4.94 0.46 0.01 5.34 3.84 1.21 0 4.5c4.3,1.91 3.11,-0.48 3.12,6.49l4.9 0.45 0.86 11.31 6.33 0.21c0,5.98 -0.11,3.94 0.82,6.11 1.29,3.05 0.95,1.67 0.95,6.52l3.11 -0.12 -0.06 11.03c0.17,0.1 0.42,0.2 0.54,0.26 0.12,0.05 0.38,0.18 0.53,0.25 0.15,0.07 0.37,0.18 0.53,0.25l5.24 1.73c0.06,0.03 3.22,-0.16 1.01,2.12 -1.12,1.15 -2.04,0.71 -3.96,0.73 0,0.2 0.13,0.46 0.14,0.57 0.01,0.11 0.11,0.43 0.12,0.54 0.18,5.69 2.18,1.24 -0.86,1.42 3.03,3.78 11.27,7.07 15.89,9.83 3.75,2.24 13.26,8.37 16.93,9.42 1.86,-2.73 0.29,0.23 0.17,-1.92 -0.05,-0.9 -0.62,0.39 -0.27,-1.95 -6.5,-1.82 -2.49,-0.48 -3.89,-3.32 -1.29,-2.63 0.86,0.24 -1.29,-1.67 -4.45,-3.95 -1.46,-1.24 -3.01,-5.46l-0.67 -1.61c-0.07,-0.23 -0.12,-0.42 -0.18,-0.66 -0.11,-0.45 -0.29,-2.42 -0.36,-3.03 -5.65,-0.48 -1.22,0.06 -3.02,-1.5l-0.2 -4.86c-5.77,-0.42 -2.72,-0.6 -6.05,-4.79 -4.8,-6.03 -0.62,-3.58 -3.72,-7.61 -0.13,-0.17 -0.96,-1.03 -1.08,-1.23 -0.09,-0.15 -0.2,-0.34 -0.28,-0.51l-0.52 -3.66 -4.26 -0.38 -0.38 -5.46c-2.36,-0.45 -1.99,0.91 -5.19,-6.46l-0.8 -2.52c-0.23,-1.02 -0.18,-1.55 -0.44,-2.48l-3.22 -5.41c-3.31,-3.78 3.08,1.23 -1.53,-1.22 -2.3,-1.23 -1.39,0.69 -3.81,-2.44 -2.03,-2.63 -2.87,-6.19 -2.92,-6.44 -0.16,-0.96 -0.09,-2.05 -0.09,-3.04l-0.61 0c0,1.68 -0.09,3.41 -1.11,4.68l-1.3 -4.2c-0.07,-0.18 -0.15,-0.36 -0.22,-0.54 -0.07,-0.18 -0.17,-0.35 -0.24,-0.53l-1.02 -5.41c-4.17,-0.32 -3.44,-0.93 -8.68,-0.75 1.23,-10.56 -3.35,-2.04 -1.06,-12 -0.04,0 -2.1,0.48 -3.98,0.75 0.59,-0.85 1.51,-2.7 0,-3 4.38,0 0.82,0.33 1.8,-1.54 -2.37,-1.51 -4.1,-2.41 -6.27,-3.71l-0.07 -78.76 -0.3 0 0.25 2.99 -1.36 46.52c-0.09,5 -0.05,10 -0.05,15 0.01,5.19 -0.63,8.73 -0.75,12.75 1.12,-0.56 0.28,-1.9 -0.19,-3.24l-0.46 -1.12c-0.39,-1.14 -0.17,-0.51 -0.51,-1.76 -1.32,-4.91 -1.7,-3.01 -1.7,-8.13l-2.93 -1.5 -0.17 -5.27 -4.28 -0.26 -0.12 -5.9 -4.34 -0.21 -0.16 -4.86 -2.95 -1.51 -0.05 -5.28 -4.34 -0.25 -0.13 -4.97c-0.19,-0.11 -0.46,-0.19 -0.6,-0.25l-3.83 -1.25c-0.44,-8.61 -1.56,-3.08 -1.61,-11.23l-5.87 -0.3 -0.13 -5.8 -4.36 -0.31c0,-4.05 -0.98,-6.41 -1.77,-9.3 -1.04,-3.8 -1.22,-0.44 -2.23,-4.64 -0.28,-1.16 0.05,-1.24 -0.39,-2.63 -0.64,-2.06 -1.6,-1.96 -3.33,-3.3 -5.52,-4.28 -1.96,-17.88 -3.81,-22.89l-1.08 19.14c0,0.46 -0.08,3.45 -0.16,3.75 -0.72,2.7 0.49,0.75 -1.47,2.48 0,-9.92 -0.31,-19.25 -0.75,-28.73l-0.79 0c2.04,7.82 -0.59,53.14 2,58.69 3.55,-4.15 -1.98,-10.95 3.04,-12.24 0,3.73 -0.9,16.07 0.92,18.22z"/>
   <path class="fil0" d="M247.56 109.25l0 6.58 -6.28 0 0 6 -5.92 0 0.01 6.2 -5.9 0 -0.01 5.88 -6.03 0.01 -0.55 11.52 -6.07 0 -0.28 11.65 -6 0 -0.01 6 -5.99 0 0 6 -6.24 0c0,3.29 -0.35,6.78 -0.27,9.91 0.1,4.19 2.12,4.73 -0.32,7.62 -0.18,-0.82 -0.09,-4.46 -1.23,-6 -0.2,1.52 -0.14,3.71 -0.15,3.79 -0.04,0.31 -0.12,0.53 -0.17,0.78l-0.49 1.43c-2.08,0.04 -13.42,7.32 -16.37,9.02 -2.86,1.65 -5.31,3.09 -8.11,4.68 -3.93,2.24 -4.91,0.47 -8.22,-1.64 -0.05,1.4 -0.47,2.6 1.55,3.37 0.12,0.05 0.35,0.15 0.49,0.2 3.28,1.13 7.12,0.92 9.05,-2.34 0.34,0.35 3.19,0.86 0.58,3.04l-0.88 0.27c-0.13,0.04 -0.37,0.04 -0.5,0.08l-5.83 2.51c1.57,1.09 1.2,0.73 1.18,5.37l-6.08 0 0 5.92 -6 0 -0.01 6 -5.99 0 0 6 -6 0c0,8.77 0,4.43 -1.31,6.35 -0.76,1.11 -1.23,-1.81 -1.17,5.39l-6.01 0.26 0 5.84 -6 0.17 0 5.7 -3.32 0.22 -0.02 7.1 -0.14 5.63 12.43 -0.03c-0.98,-3.99 -0.34,-8.2 -0.34,-12.5l6.15 0 0 -5.85 5.86 0 0 -6.15 6.14 0 0 -6.08 5.63 0 0 -6.15 6.15 0 0 -5.85 5.85 0 0.01 -6.15 6.15 0 0 -5.85 5.85 0c0,-4.1 0.68,-4.68 -0.65,-7.32l-0.79 -1.25c-0.11,-0.19 -0.32,-0.42 -0.44,-0.65 3.04,-0.69 2.37,0.62 3,-2.86l4.96 0 -0.01 -6.3 6.77 0.94 -1 -6.63 6.24 -0.01 -0.01 -5.92 6.08 0 0.53 -11.55 11.47 -0.54 0.54 -11.62 11.31 -0.53 0.55 -11.47 5.83 0 0 -6.08 6.07 0 0.34 6.33c1.63,-1.58 1.09,-2.68 1.06,-5.53 -0.01,-2.28 -0.04,-4.55 -0.04,-6.83l1.43 0.08 0.63 24.12 0.32 11.93 0.75 0 1 -54.19c-2.87,2.98 -0.79,13.95 -1.29,17.77l-2.02 -47.44c-1.79,3.4 -0.81,19.46 -1.5,23.65z"/>
   <path class="fil0" d="M249.72 75.12c2.36,-1.25 0.48,-0.36 3.01,-1.12l-0.36 41.27 -1 54.19 -0.75 0 -0.32 -11.93c-2.33,0.6 -1.4,1.48 -1.59,5.02l-0.78 18.98 -12.75 0.21 0 6.15 -5.85 0 0 5.86 -6.15 0 0 6.14 -5.85 0 0 5.92 -6.53 -0.44 0.44 6.52 -5.92 0.01 0.01 6.07 -5.79 0 -0.46 11.78 -11.53 0.42 -0.48 11.58c-3.87,0 -8.45,0.95 -12.04,-0.14l-0.18 11.88c-5.11,0.21 -6.1,-0.67 -9.06,2.15 -3.3,3.15 -2.54,3.21 -2.89,8.99 -4.71,0.75 -7.74,4.26 -8.7,4.96l-2.93 1.79 2.24 0.94c2.62,-0.26 -0.35,0 1.98,-0.45 1.37,-0.27 0.35,-0.34 2.8,-0.48l-3.59 2.39c-0.18,0.09 -0.36,0.17 -0.54,0.26l-2.1 0.89c-0.11,0.05 -0.35,0.12 -0.51,0.21l0.09 1.03c4.33,1.55 -2.2,-0.05 1.27,0.04 6.27,-0.98 21.38,-14.59 26.72,-12.82l1.23 -0.83c2.9,-0.58 2.65,0.97 4.44,1.57 -0.43,-2.99 0.65,0.78 -0.7,-1.49l-1.36 -2.1c-0.08,-0.21 -0.32,-3.48 -1.71,-4.24 -0.01,0 0,0.06 0.02,0.08 0.85,-2.07 -1.56,-1.52 3.75,-0.75 -0.93,0.05 -0.59,1.61 2.25,2.25l0 -9.75 11.24 -0.91 0.85 -11.09 5.94 -0.01 -0.03 -6.33 5.66 0 0.38 -11.67 16.79 -1.24 0.01 -5.92 6.01 0 -0.01 -5.92c4.47,0 8.6,-0.84 12.73,0.09l3.24 -0.58c0.13,15.87 -0.41,9.32 -0.96,13 -0.16,1.08 1.25,1.35 2.32,2.25l1.7 -1.06c1.34,-29.55 0.13,-77.32 0.1,-110.13 -0.01,-5.58 1.14,-33.04 -0.77,-35.86 -0.13,0.11 -0.35,0.22 -0.44,0.28 -0.09,0.06 -0.33,0.21 -0.44,0.29l-2.15 1.8z"/>
   <path class="fil0" d="M138.98 265.73l8.69 -0.68 0.01 -5.5 3.69 -0.92 0 -4.67 11.13 -1.05 0.7 -11.52c4.08,-0.01 7.91,-0.72 11.83,0.22l-0.05 -11.71 4.46 -0.32 0 -5.81 6 -0.25 0 -5.69c4.69,-0.79 2.54,0.08 4.94,-2.16 3.02,-2.83 2.36,-1.97 2.54,-4.15l5.88 0 0 -6.11 12 -0.04c-0.91,-4.74 0.41,-12.41 0.4,-17.77l5.83 0 0.01 -5.97 11.65 -0.4 -0.02 -11.83 6.17 0 0 -6.15c2.8,-0.24 1.2,0.18 3.29,-1.79 3.47,-3.28 3.22,-3.56 3.22,-9.55l6.26 0 -0.39 -6.22 -0.34 -6.33 -6.07 0 0 6.08 -5.83 0 -0.55 11.47 -11.31 0.53 -0.54 11.62 -11.47 0.54 -0.53 11.55 -6.08 0 0.01 5.92 -6.24 0.01 1 6.63 -6.77 -0.94 0.01 6.3 -4.96 0c-0.63,3.48 0.04,2.17 -3,2.86 0.12,0.23 0.33,0.46 0.44,0.65l0.79 1.25c1.33,2.64 0.65,3.22 0.65,7.32l-5.85 0 0 5.85 -6.15 0 -0.01 6.15 -5.85 0 0 5.85 -6.15 0 0 6.15 -5.63 0 0 6.08 -6.14 0 0 6.15 -5.86 0 0 5.85 -6.15 0c0,4.3 -0.64,8.51 0.34,12.5z"/>
   <path class="fil0" d="M0.07 74.1l0.2 0.75 0.79 0c0.44,9.48 0.75,18.81 0.75,28.73 1.96,-1.73 0.75,0.22 1.47,-2.48 0.08,-0.3 0.16,-3.29 0.16,-3.75l1.08 -19.14c1.85,5.01 -1.71,18.61 3.81,22.89 1.73,1.34 2.69,1.24 3.33,3.3 0.44,1.39 0.11,1.47 0.39,2.63 1.01,4.2 1.19,0.84 2.23,4.64 0.79,2.89 1.77,5.25 1.77,9.3l4.36 0.31 0.13 5.8 5.87 0.3c0.05,8.15 1.17,2.62 1.61,11.23l3.83 1.25c0.14,0.06 0.41,0.14 0.6,0.25l0.13 4.97 4.34 0.25 0.05 5.28 2.95 1.51 0.16 4.86 4.34 0.21 0.12 5.9 4.28 0.26 0.17 5.27 2.93 1.5c0,5.12 0.38,3.22 1.7,8.13 0.34,1.25 0.12,0.62 0.51,1.76l0.46 1.12c0.47,1.34 1.31,2.68 0.19,3.24 0.12,-4.02 0.76,-7.56 0.75,-12.75 0,-5 -0.04,-10 0.05,-15 -1.4,0.44 -0.52,0.79 -0.79,-1.45 -0.12,-0.94 -0.01,-2.88 -0.01,-3.92 -3.81,-1.14 -0.16,1.86 -2.87,-6.23l-0.41 -1.2c-0.82,-3.05 -1.22,-6.35 -1.22,-9.65l-6.32 -0.53 -0.26 -5.64 -4.49 -0.24 0 -5.65c-1.83,-0.35 -4.17,0.29 -4.5,-6.05l-4.22 -0.59c0,-3.76 0.63,-2.62 -1.06,-4.76 -3.71,-4.68 -0.17,1.31 -2.91,-7.12l-0.61 -1.82c-0.32,-1.4 -0.06,-2.65 -0.39,-3.67l-1.1 4.94c-0.06,-0.11 -0.23,0.47 -0.4,0.66 -0.16,-0.19 -0.31,-0.44 -0.39,-0.62 -3.21,-6.66 0.39,3.13 -0.84,-1.98 -0.17,-0.66 -0.09,-2.24 -0.09,-2.99 -3.79,-0.94 -1.74,-0.61 -2.95,-1.5l-0.06 -4.53 -6.06 -1.01c-0.17,-2.81 -0.39,-6.6 -2,-8.96 -1,-1.49 -2.07,-1.4 -3.65,-2.32l-1.66 -2.65c-0.61,-0.89 0.57,0.05 -1.35,-1.24 -0.29,-0.2 -1.25,-0.66 -1.43,-0.77 -2.2,-1.43 -2.54,-0.78 -2.17,-3.25 -1.67,0.82 -0.76,0.02 -1.3,2.22z"/>
   <path class="fil0" d="M6.23 139.52l3.25 0.22 0.01 4.87 2.94 1.5c0.03,0.71 -0.01,2.4 0.14,3.02 1.05,4.4 2.39,-0.23 2.41,8.07l6.32 0.66 0.21 5.68c3.32,0.1 3.09,-1.41 3.09,6l4.38 0.13 0 5.87 4.5 0.18 0.01 4.9 2.95 1.5c0.16,5.03 0.04,3.25 1.57,5.56 1.39,2.11 0.96,1.5 0.97,5.64l6.33 0.54 0.2 5.68c5.93,0.18 0.69,0.31 4.49,6.13 1.41,2.17 0.97,1.53 0.97,5.76l4.5 0.13 0 5.87c1.98,0.75 1.07,-0.09 1.53,2.19 0.07,0.38 -0.02,3.06 -0.02,3.68l5.99 0.28c0.01,8.34 -0.31,4.27 2.66,6.26 2.09,1.39 0.79,-3.07 1.3,6.39 0.22,4.21 -0.47,2.76 1.52,3.48 0.77,2.21 0.14,1.74 8.54,1.96 0,10.16 1.62,1.17 1.62,11.87l8.99 0.18c0,-4.85 0.34,-3.47 -0.95,-6.52 -0.93,-2.17 -0.82,-0.13 -0.82,-6.11l-6.33 -0.21 -0.86 -11.31 -4.9 -0.45c-0.01,-6.97 1.18,-4.58 -3.12,-6.49l0 -4.5 -3.84 -1.21 -0.01 -5.34 -4.94 -0.46 -0.01 -6.04 -4.6 -0.3 -0.77 -5.5c-2.42,-6.81 2.15,-5.84 -5.22,-6.11l0 -5.8 -4.65 -0.46c0.04,-5.61 -1.01,-5.64 -0.96,-11.18l-6.38 -0.63c-0.01,-4.98 1.36,-5.37 -2.62,-5.76 0,-0.71 0.08,-3.84 -0.06,-4.3 -0.54,-1.77 0.86,-0.46 -2.38,-2.17 -0.13,-0.07 -0.41,-0.14 -0.59,-0.25l0 -4.87 -6.36 -0.66c-0.15,-11.07 -2.46,-0.25 -2.46,-11.52l-4.88 -0.59 -0.21 -5.82 -4.45 0.02 0 -5.84 -8.92 -0.81 -0.08 6.99z"/>
   <path class="fil0" d="M121.34 3.06l-2.05 2.03c7.84,-2.8 3.58,-1.04 5.25,0.75 -4.49,0.09 -1.28,1.37 -5.4,2.64 0.48,0.77 0.52,0.6 0.79,1.16l0.57 1.31c0.07,0.07 0.81,0.47 1.01,0.62 -3,0.4 -1.4,-0.09 -2.91,1.02 1.78,8.14 0.48,37.65 0.48,48.01 3.47,0.57 2.18,1.08 5.6,1.98l5.11 1.02 -3.73 2.02c-0.16,-0.19 -0.51,0.17 -0.74,0.3 3.6,0.34 5.2,1.95 8.19,3.71 2.49,1.47 4.63,2.67 7.26,4.29l4.02 -2.08c-0.56,-3.16 1.58,1.76 -0.49,-0.76l-3.26 -4.32c-0.17,0.08 -0.41,0.08 -0.47,0.3 -0.07,0.21 -0.37,0.23 -0.46,0.27l-3.37 0.86c0.49,-0.14 1.84,2.53 0.26,-0.75 -1.07,-2.24 -2.89,-0.76 -4.99,-3.84 1.02,-0.43 1.69,-1.03 2.79,-0.64 4.14,1.49 -1.44,1.24 4.58,2.89l-0.1 -52.23c0.51,-2.19 -0.46,0.27 1.92,-3.18l0.93 -1.47 -5.17 -3.56c-1.87,-1.01 -3.63,-2.07 -5.24,-3.01 -1.72,-1.01 -3.49,-2.59 -5.5,-2.38 -1.66,0.17 -4.08,1.86 -4.88,3.04z"/>
   <path class="fil0" d="M148.17 78.03c4.8,2.66 16.77,10.6 21.11,11.7 0.63,-3.25 2.32,-0.77 3.27,0.38 0.06,-0.17 -0.01,-0.65 0,-0.54l0.12 -1.01c0.34,-0.9 0.62,-1.38 2.17,-1.31 -2.95,-0.97 -0.86,-0.9 -3.9,-1.15l0 -48 -3.9 -1.26c-0.13,-0.06 -0.4,-0.13 -0.57,-0.24 4.38,-2.06 1.78,1.13 3.49,-2.67l-5.27 -1.84 0.64 -7.63c-0.01,-0.07 -0.07,-0.26 -0.09,-0.34 -0.56,-1.75 -0.87,-0.32 -1.29,-2.62 -1.24,-1.64 -10.13,-6.71 -12.48,-7 -4.26,2.05 0.02,-1.12 -0.46,0.87 -0.04,0.14 -0.09,0.6 -0.1,0.77 -0.41,6.23 -0.71,-4.8 0.07,1.8 0.02,0.18 0.06,0.66 0.11,0.83l2.09 2.9c0.12,-0.16 0.43,0.43 0.61,0.67 -0.65,0.33 -1.67,1.15 -1.74,1.26 -1.55,2.47 -0.51,42.84 -0.51,49 -2.83,2.11 -2.1,0.51 -3,3 0.58,-1.24 0.75,-1.74 2.62,-0.77 2.3,1.18 1.34,0.33 2.63,3.77l-5.62 -0.57z"/>
   <path class="fil0" d="M249.72 75.12c-2.07,0.74 -4.41,2.1 -6.18,3.12 -2.59,1.49 -3.57,2.59 -6.02,2.96 -1.16,1.41 -1.77,1.61 -3.38,2.6 -1.44,0.88 -0.77,0.38 -1.92,1.23 -1,0.73 -0.87,0.65 -1.53,1.31 3.31,-1.02 0.81,-0.75 4.27,-0.62 -1.14,3.77 2.03,1.36 -2.82,2.63l2.31 8.67 -11.54 0.36 0 6.36 -5.72 0 0 5.92 -6.02 0 -0.45 11.61 -6.26 0 0 5.75 -5.61 0.03 0.25 12.96 6.35 0 0 -5.98 5.85 0 0 -6.2 5.98 0 0 -5.97 6.03 0 -0.01 -6.03 11.2 -0.59 0.01 -6.18 13.05 0.19c0.69,-4.19 -0.29,-20.25 1.5,-23.65l2.02 47.44c0.5,-3.82 -1.58,-14.79 1.29,-17.77l0.36 -41.27c-2.53,0.76 -0.65,-0.13 -3.01,1.12z"/>
   <path class="fil0" d="M179.63 263.39c5.47,2.51 11.55,7.2 16.65,9.47 1.41,-4.76 -1.15,-3.57 0.77,-6.93 0.09,-0.16 0.27,-0.3 0.37,-0.45 0.1,-0.14 0.29,-0.27 0.39,-0.41l0.69 -0.89c0.84,-1.66 0.76,-8.02 0.76,-10.34l11.65 -0.43 0.41 -11.57 11.69 -1.73c-0.22,-1.52 -0.37,-1.31 -0.95,-3.23 3.48,1.02 6.02,1.78 7.95,4.4 0.08,-0.36 2.6,0.86 -0.03,-1.47 -1.44,-1.27 1.95,0.09 -1.92,-0.68 1.79,-1.67 -1.05,-0.44 1.93,-1.03 -1.44,-1.89 -2.67,-1.84 -4.15,-3.88 -0.21,0.18 -0.46,0.48 -0.6,0.54l-1.12 0.21c-0.08,-0.18 -0.31,-0.28 -0.51,-0.34 1.68,-3.53 2.43,-3.85 6.69,-3.31 -0.15,-0.2 -0.71,-0.91 -0.8,-1.1 -0.07,-0.14 -0.21,-0.35 -0.27,-0.51 -0.05,-0.13 -0.13,-0.34 -0.16,-0.48l0.31 -5.27 7.61 -0.06c-0.14,-6.45 0.07,-0.81 -1.95,-4.27 6.11,-5.56 5.94,1.37 5.94,-8.26l6.14 0 0 -6.24c-4.13,-0.93 -8.26,-0.09 -12.73,-0.09l0.01 5.92 -6.01 0 -0.01 5.92 -16.79 1.24 -0.38 11.67 -5.66 0 0.03 6.33 -5.94 0.01 -0.85 11.09 -11.24 0.91 0 9.75c-2.84,-0.64 -3.18,-2.2 -2.25,-2.25 -5.31,-0.77 -2.9,-1.32 -3.75,0.75 -0.02,-0.02 -0.03,-0.08 -0.02,-0.08 1.39,0.76 1.63,4.03 1.71,4.24l1.36 2.1c1.35,2.27 0.27,-1.5 0.7,1.49 -1.79,-0.6 -1.54,-2.15 -4.44,-1.57l-1.23 0.83z"/>
   <path class="fil0" d="M96.78 17.17c-0.32,1.73 -2.66,-0.61 1.3,0.67 0.8,0.26 1.67,-0.61 1.33,1.21 -0.25,1.32 -1.74,1.62 -3.2,2.95 1.73,-0.62 1.21,-0.51 3.46,0.1 4.45,1.21 -1.25,0.77 3.59,1.19l-0.24 37.8 2.25 0c0,15.87 -0.51,10.58 3.6,12.46l1.47 0.56c2.36,0.3 13.42,-6.54 14.98,-8.19 0.23,-0.13 0.58,-0.49 0.74,-0.3l3.73 -2.02 -5.11 -1.02c-3.42,-0.9 -2.13,-1.41 -5.6,-1.98 0,-10.36 1.3,-39.87 -0.48,-48.01 1.51,-1.11 -0.09,-0.62 2.91,-1.02 -0.2,-0.15 -0.94,-0.55 -1.01,-0.62l-0.57 -1.31c-0.27,-0.56 -0.31,-0.39 -0.79,-1.16 4.12,-1.27 0.91,-2.55 5.4,-2.64 -1.67,-1.79 2.59,-3.55 -5.25,-0.75l2.05 -2.03c-4.08,1.15 -8.92,4.7 -12.87,6.95 -2.49,1.41 -10.74,5.37 -11.69,7.16z"/>
   <path class="fil0" d="M195.66 186.62l0.49 -1.43c0.05,-0.25 0.13,-0.47 0.17,-0.78 0.01,-0.08 -0.05,-2.27 0.15,-3.79 1.14,1.54 1.05,5.18 1.23,6 2.44,-2.89 0.42,-3.43 0.32,-7.62 -0.08,-3.13 0.27,-6.62 0.27,-9.91l6.24 0 0 -6 5.99 0 0.01 -6 6 0 0.28 -11.65 6.07 0 0.55 -11.52 6.03 -0.01 0.01 -5.88 5.9 0 -0.01 -6.2 5.92 0 0 -6 6.28 0 0 -6.58 -13.05 -0.19 -0.01 6.18 -11.2 0.59 0.01 6.03 -6.03 0 0 5.97 -5.98 0 0 6.2 -5.85 0 0 5.98 -6.35 0 -0.25 -12.96 -1.07 30.61 -1.05 0c0,-8.46 -0.21,-18.15 -0.62,-26.55 -0.32,-6.63 0.73,-20.96 -0.3,-25.77l0.03 -0.02 -0.18 81.3z"/>
   <path class="fil0" d="M86.63 170.34c3.54,-1.04 -2.33,1.36 1.05,-0.9 1.23,-0.81 0.56,-0.37 1.81,-0.82l-0.29 -38.29c0.02,-3.2 0.17,-4.31 1.67,-5.55l16.42 9.99c1.04,-1.79 -0.86,-0.61 1.68,-2.16 -0.11,-0.16 -0.27,-0.38 -0.34,-0.48l-3 -3.17c-0.13,-0.14 -0.29,-0.29 -0.41,-0.44 -0.14,-0.16 -0.28,-0.35 -0.4,-0.51 -0.67,-0.89 -0.4,0.29 -1.07,-1.94 6.78,-2.36 4.4,2.46 10.08,0.96 -2.27,-1.31 -1.54,-0.77 -1.1,-3.08l3.56 1c1.01,-2.24 2.05,-1.8 3.71,-3.55l1.37 -1.73c1.83,-1.77 2.99,-1.73 5.31,-1.87 0.14,0 0.37,0.03 0.5,0.01 3.34,-0.31 1.61,-1.79 4.98,-3.95 4.68,-2.99 6.36,-0.86 10.1,-4.59 0.41,-0.4 1.06,-1.16 1.33,-1.48 -2.02,-2.49 -9.99,-6.37 -14.06,-8.7 -4.59,-2.64 -4.27,-0.81 -14.66,5.07 -9.72,5.49 -20.62,12.75 -30.11,17.18l0.12 47.28c0.7,2.11 0.03,1.17 1.75,1.72z"/>
   <path class="fil0" d="M210.67 96.61c2.02,-0.1 10.42,-4.75 11.95,-6.75 -3.77,0.51 -1.51,0.91 -5.65,1.13 0.61,-1.36 0.14,-2.42 4.79,-2.39 -1.73,-1.6 -3.25,-1.04 -5.32,-0.36 2.9,-4.16 -0.4,0.74 3.32,-3.41 -3.51,-0.37 -2.96,0.7 -2.88,-3.87 0.08,-5.11 -0.33,-17.28 0.67,-20.13l6 1.23c0.06,-0.13 0.24,-0.26 0.29,-0.3l3.6 -1.68c0.1,-0.26 0.4,-0.18 0.61,-0.23l-5.1 -1.83c-0.17,-1.6 -0.48,-1.06 1.22,-1.52 -2.25,-3.1 -24.97,-14.97 -26.17,-15.07 -2.83,0.23 -1.77,-3.46 -0.65,0.52 0.03,0.13 0.34,0.72 0.44,0.89l1.01 1.25 -2.92 1.11c0.13,0.26 1.24,1.59 1.47,1.89 0.08,0.11 0.24,0.28 0.33,0.41 0.08,0.13 0.23,0.3 0.31,0.44 1.29,2.24 1.19,43.12 0.96,50.17 -0.05,1.71 -0.32,1.33 -0.36,3.53 4.5,-0.55 6.39,-4.6 12.08,-5.03z"/>
   <path class="fil0" d="M169.28 89.73c0.74,1.04 -0.27,0.09 1.37,1.28 0.28,0.21 1.53,0.95 1.85,1.12 1.55,0.88 2.68,1.44 4.54,2.13 -2.95,-4.11 -0.87,-0.89 0.01,-1.85 4.56,1.41 2.31,3.14 7.92,4.01 0.19,-3.82 0.79,-2.48 -1.32,-5.07 0.17,-0.12 0.48,-0.44 0.57,-0.28 0.01,0.02 2.28,-0.83 2.76,-2.72 -1.04,-1.15 -0.24,-0.48 -1.76,-1.24l-2.44 -0.92 1.57 -1.85c0.8,-1.95 0.32,-7.16 0.32,-9.49l0.63 -38.93c0.23,0.08 0.49,0.23 0.76,0.31l0.85 -1.03c0.06,-0.13 0.68,-0.29 0.78,-0.6 -2.79,-1.07 -8.17,-4.58 -11.28,-6.35 -3.54,-2.04 -8.79,-5.52 -12.46,-6.75 0.42,2.3 0.73,0.87 1.29,2.62 0.02,0.08 0.08,0.27 0.09,0.34l-0.64 7.63 5.27 1.84c-1.71,3.8 0.89,0.61 -3.49,2.67 0.17,0.11 0.44,0.18 0.57,0.24l3.9 1.26 0 48c3.04,0.25 0.95,0.18 3.9,1.15 -1.55,-0.07 -1.83,0.41 -2.17,1.31l-0.12 1.01c-0.01,-0.11 0.06,0.37 0,0.54 -0.95,-1.15 -2.64,-3.63 -3.27,-0.38z"/>
   <path class="fil0" d="M220.37 286.49c1.79,1.56 5.53,4.2 8.07,4.8 3.06,0.73 22.27,-11.25 25.06,-13.06l0.09 -23.42c0,-4.68 0.3,-4 -3.43,-5.31l-2.15 2.53c-1.44,1.16 -2.38,2.08 -2.76,1.48 -0.1,-0.17 -0.41,0.17 -0.62,0.24 -2.06,-3.22 -0.2,-3.09 -3.93,-4.43l-3.31 -1.35c-2.57,-1.69 -0.85,-0.38 -3.17,-2.84l2.77 4.17c3.38,4.3 -1.06,-2.91 0.81,1.08 -0.14,0.19 -0.29,0.43 -0.4,0.57l-2.69 2.62c-1.94,0.9 -2.92,0.56 -5.12,0.56l-0.21 17.83 -6 0 0 4.67 -7.13 2.26 1.01 1.33c0.82,0.8 0,0.06 1.27,0.9 2.52,1.68 2.1,2.02 2.34,2.32l2.64 2.05 -3.14 1z"/>
   <path class="fil0" d="M177.04 94.26c1.02,1.38 16.76,10.3 18.8,11.06l-0.03 0.02c3.31,-1.06 12.73,-6.37 14.86,-8.73 -5.69,0.43 -7.58,4.48 -12.08,5.03 0.04,-2.2 0.31,-1.82 0.36,-3.53 0.23,-7.05 0.33,-47.93 -0.96,-50.17 -0.08,-0.14 -0.23,-0.31 -0.31,-0.44 -0.09,-0.13 -0.25,-0.3 -0.33,-0.41 -0.23,-0.3 -1.34,-1.63 -1.47,-1.89l2.92 -1.11 -1.01 -1.25c-0.1,-0.17 -0.41,-0.76 -0.44,-0.89 -1.12,-3.98 -2.18,-0.29 0.65,-0.52 -1.3,-1.78 -0.15,-0.62 -2.07,-1.96 -0.89,-0.63 -1.9,-1.1 -2.84,-1.64 -1.99,-1.15 -3.28,-1.76 -5.4,-3.23 -0.1,0.31 -0.72,0.47 -0.78,0.6l-0.85 1.03c-0.27,-0.08 -0.53,-0.23 -0.76,-0.31l-0.63 38.93c0,2.33 0.48,7.54 -0.32,9.49l-1.57 1.85 2.44 0.92c1.52,0.76 0.72,0.09 1.76,1.24 -0.48,1.89 -2.75,2.74 -2.76,2.72 -0.09,-0.16 -0.4,0.16 -0.57,0.28 2.11,2.59 1.51,1.25 1.32,5.07 -5.61,-0.87 -3.36,-2.6 -7.92,-4.01 -0.88,0.96 -2.96,-2.26 -0.01,1.85z"/>
   <path class="fil0" d="M126.48 229.38l0.23 23.65 3.32 -0.22 0 -5.7 6 -0.17 0 -5.84 6.01 -0.26c-0.06,-7.2 0.41,-4.28 1.17,-5.39 1.31,-1.92 1.31,2.42 1.31,-6.35l6 0 0 -6 5.99 0 0.01 -6 6 0 0 -5.92 6.08 0c0.02,-4.64 0.39,-4.28 -1.18,-5.37l5.83 -2.51c0.13,-0.04 0.37,-0.04 0.5,-0.08l0.88 -0.27c2.61,-2.18 -0.24,-2.69 -0.58,-3.04 -1.93,3.26 -5.77,3.47 -9.05,2.34 -0.14,-0.05 -0.37,-0.15 -0.49,-0.2 -2.02,-0.77 -1.6,-1.97 -1.55,-3.37l-9.95 -5.77 -1.47 3.47c0.13,0.05 0.37,0.1 0.41,0.12 0.96,0.44 1.27,-1.48 0.35,0.63 2.82,2.32 1.97,2.29 3.75,5.1 -1.55,0.16 -0.79,0.17 -2.34,-0.12 -3.38,-0.65 0.03,-0.12 -1.85,-0.54 -2.47,-0.55 -1.19,-2.22 -3.11,0.8 -0.99,-1.86 0.76,-0.85 1.77,-1.09l-0.48 4.09c-5.46,2.05 -5.65,-0.09 -6.73,-1.4l4.96 -0.85c-2.41,-2.01 -3.08,-0.38 -4.99,0.8l-3.74 1.45c0,8.39 -1.02,15.56 -1.02,23.69l-12.04 0.32z"/>
   <path class="fil0" d="M91.54 19.22l3.57 2.37 -3.87 1.33c4.71,-2.21 2.5,0.7 3.29,1.67 -4.97,-0.74 -0.17,-1.26 -2.38,0.61 -0.94,0.8 -0.46,0.9 -0.72,1.95 -1.17,4.87 0.17,3.03 -2.15,4.19 0,0.65 -0.16,1.78 0.1,2.31l0.6 0.85c0.1,0.13 0.35,0.34 0.44,0.44 0.11,0.12 0.45,0.6 0.53,0.45 0.09,-0.16 0.4,0.29 0.58,0.46l-1.46 2.81c-1.32,4.23 1.5,39.74 -0.88,46.73l1.31 0.3c3.43,-0.49 6.72,-3.22 9.84,-5 3.63,-2.07 7.39,-3.42 10,-6.58l-1.47 -0.56c-4.11,-1.88 -3.6,3.41 -3.6,-12.46l-2.25 0 0.24 -37.8c-4.84,-0.42 0.86,0.02 -3.59,-1.19 -2.25,-0.61 -1.73,-0.72 -3.46,-0.1 1.46,-1.33 2.95,-1.63 3.2,-2.95 0.34,-1.82 -0.53,-0.95 -1.33,-1.21 -3.96,-1.28 -1.62,1.06 -1.3,-0.67l-5.24 2.05z"/>
   <path class="fil0" d="M57.39 39.41c-5.57,3.04 -7.09,3.87 -8.72,5.72l6.41 3.47c-0.77,6.4 -0.22,29.64 -0.23,39 0,3.59 -0.81,9.95 1.28,11.63 -0.2,0.11 -0.49,0.03 -0.6,0.32l-2.25 1.55c-4.35,-1.62 -4.28,-0.86 -3.76,-4.19 -3.7,1.2 -2.02,1.5 -4.87,0.47l-1.51 0c2.54,3.06 8.24,5.15 10.35,6.4 0.73,0.44 0.51,0.12 1.68,1.36 1.4,1.47 0.52,-0.27 1.52,1.97l0.3 0c0.82,-2.67 1.27,-2.24 3.91,-3.65 1.6,-0.86 3.07,-1.73 4.76,-2.71 2.69,-1.55 7.23,-3.48 8.93,-5.58l0.45 -2.31c-1.57,0.48 -0.86,2.33 -4.51,-2.25 1.8,3.8 2.13,1.7 0.56,5.24l-4.12 0.38c1.18,-1.34 -1.65,-2.44 3.56,-1.13 -1.03,-0.79 -1.43,-0.52 -2.26,-1.99l-1.68 -2.23c-0.07,-0.25 -0.41,-0.12 -0.56,-0.28 1.15,-2.52 -0.21,-1.77 2.86,-2.42l-2.86 -0.58c2.15,-11.63 -0.14,-28.23 0.85,-38.25 0.25,-2.55 2.18,-11.32 -2.66,-11.53 -4.97,-0.21 -0.47,-0.55 -2.06,0.43l-2.13 2.84c-5.44,0 -1.54,0.4 -2.64,-1.68z"/>
   <path class="fil0" d="M138.98 265.73l-12.43 0.03 0.1 14.62 0.33 4.5c-3.5,-2 -0.27,-0.67 -0.32,3 -0.35,2.34 0.22,1.05 0.27,1.95 0.12,2.15 1.69,-0.81 -0.17,1.92 4.3,-1.75 8.93,-5.05 13.08,-7.29l9.99 -5.74c1.91,-1.14 1.77,-0.89 3.08,-2.51 -3.47,-0.09 3.06,1.51 -1.27,-0.04l-0.09 -1.03c0.16,-0.09 0.4,-0.16 0.51,-0.21l2.1 -0.89c0.18,-0.09 0.36,-0.17 0.54,-0.26l3.59 -2.39c-2.45,0.14 -1.43,0.21 -2.8,0.48 -2.33,0.45 0.64,0.19 -1.98,0.45l-2.24 -0.94 2.93 -1.79c0.96,-0.7 3.99,-4.21 8.7,-4.96 0.35,-5.78 -0.41,-5.84 2.89,-8.99 2.96,-2.82 3.95,-1.94 9.06,-2.15l0.18 -11.88c-3.92,-0.94 -7.75,-0.23 -11.83,-0.22l-0.7 11.52 -11.13 1.05 0 4.67 -3.69 0.92 -0.01 5.5 -8.69 0.68z"/>
   <path class="fil0" d="M247.22 145.69l0.39 6.22 -6.26 0c0,5.99 0.25,6.27 -3.22,9.55 -2.09,1.97 -0.49,1.55 -3.29,1.79l0 6.15 -6.17 0 0.02 11.83 -11.65 0.4 -0.01 5.97 -5.83 0c0.01,5.36 -1.31,13.03 -0.4,17.77l6.53 0.44 0 -5.92 5.85 0 0 -6.14 6.15 0 0 -5.86 5.85 0 0 -6.15 12.75 -0.21 0.78 -18.98c0.19,-3.54 -0.74,-4.42 1.59,-5.02l-0.63 -24.12 -1.43 -0.08c0,2.28 0.03,4.55 0.04,6.83 0.03,2.85 0.57,3.95 -1.06,5.53z"/>
   <path class="fil0" d="M140.77 73.92l7.4 4.11 5.62 0.57c-1.29,-3.44 -0.33,-2.59 -2.63,-3.77 -1.87,-0.97 -2.04,-0.47 -2.62,0.77 0.9,-2.49 0.17,-0.89 3,-3 0,-6.16 -1.04,-46.53 0.51,-49 0.07,-0.11 1.09,-0.93 1.74,-1.26 -0.18,-0.24 -0.49,-0.83 -0.61,-0.67l-2.09 -2.9c-0.05,-0.17 -0.09,-0.65 -0.11,-0.83 -0.78,-6.6 -0.48,4.43 -0.07,-1.8 0.01,-0.17 0.06,-0.63 0.1,-0.77 0.48,-1.99 -3.8,1.18 0.46,-0.87 -0.13,-0.16 -0.35,-0.59 -0.42,-0.45 -0.08,0.14 -0.33,-0.34 -0.43,-0.43 -1.06,-0.92 -0.43,-0.45 -1.34,-1.08 -0.75,-0.51 -1.5,-0.84 -2.35,-1.33 -1.96,-1.15 -2.76,-2.08 -4.8,-2.24l-0.93 1.47c-2.38,3.45 -1.41,0.99 -1.92,3.18l0.1 52.23c-6.02,-1.65 -0.44,-1.4 -4.58,-2.89 -1.1,-0.39 -1.77,0.21 -2.79,0.64 2.1,3.08 3.92,1.6 4.99,3.84 1.58,3.28 0.23,0.61 -0.26,0.75l3.37 -0.86c0.09,-0.04 0.39,-0.06 0.46,-0.27 0.06,-0.22 0.3,-0.22 0.47,-0.3l3.26 4.32c2.07,2.52 -0.07,-2.4 0.49,0.76l-4.02 2.08z"/>
   <path class="fil0" d="M126.66 287.88c0.05,-3.67 -3.18,-5 0.32,-3l-0.33 -4.5c-2.75,-0.3 -1.9,-0.76 -1.9,-8.25l-3 -1.5 0 -4.5 -3 -1.5 0 -4.71 -4.38 -0.26 -0.14 -5.53c-4.33,-0.96 -1.76,-0.55 -2.98,-1.5l0 -4.5 -4.5 -0.3 0 -5.91 -4.29 -0.26c0,-5.67 1.55,-5.79 -3.21,-5.95l-1.71 -11.59c-0.76,1.98 0.65,3.15 -1.51,5.59 -1.58,-1.8 -1.28,-2.36 -1.28,-5.8l-4.17 -0.25 -0.14 -5.75 -5.02 -0.48c-0.04,-6.61 0.08,-5.24 -2.06,-6.05l-2.45 -0.76c0,-8.55 -0.42,-2.84 2.34,-5.82 -5.84,0.14 -3.41,1.01 -5.21,-4.67 4.16,2.57 4.93,0.12 6,4.31 3.63,-2.47 1.29,1.49 0.75,-2.03 -1.06,-2.05 -7.81,-4.99 -10.67,-6.66 -3.62,-2.11 -7.2,-4.33 -10.79,-6.17 -0.98,1.87 2.58,1.54 -1.8,1.54 1.51,0.3 0.59,2.15 0,3 1.88,-0.27 3.94,-0.75 3.98,-0.75 -2.29,9.96 2.29,1.44 1.06,12 5.24,-0.18 4.51,0.43 8.68,0.75l1.02 5.41c0.07,0.18 0.17,0.35 0.24,0.53 0.07,0.18 0.15,0.36 0.22,0.54l1.3 4.2c1.02,-1.27 1.11,-3 1.11,-4.68l0.61 0c0,0.99 -0.07,2.08 0.09,3.04 0.05,0.25 0.89,3.81 2.92,6.44 2.42,3.13 1.51,1.21 3.81,2.44 4.61,2.45 -1.78,-2.56 1.53,1.22l3.22 5.41c0.26,0.93 0.21,1.46 0.44,2.48l0.8 2.52c3.2,7.37 2.83,6.01 5.19,6.46l0.38 5.46 4.26 0.38 0.52 3.66c0.08,0.17 0.19,0.36 0.28,0.51 0.12,0.2 0.95,1.06 1.08,1.23 3.1,4.03 -1.08,1.58 3.72,7.61 3.33,4.19 0.28,4.37 6.05,4.79l0.2 4.86c1.8,1.56 -2.63,1.02 3.02,1.5 0.07,0.61 0.25,2.58 0.36,3.03 0.06,0.24 0.11,0.43 0.18,0.66l0.67 1.61c1.55,4.22 -1.44,1.51 3.01,5.46 2.15,1.91 0,-0.96 1.29,1.67 1.4,2.84 -2.61,1.5 3.89,3.32z"/>
   <path class="fil0" d="M66.45 34.45l-9.06 4.96c1.1,2.08 -2.8,1.68 2.64,1.68l2.13 -2.84c1.59,-0.98 -2.91,-0.64 2.06,-0.43 4.84,0.21 2.91,8.98 2.66,11.53 -0.99,10.02 1.3,26.62 -0.85,38.25l2.86 0.58c-3.07,0.65 -1.71,-0.1 -2.86,2.42 0.15,0.16 0.49,0.03 0.56,0.28l1.68 2.23c0.83,1.47 1.23,1.2 2.26,1.99 -5.21,-1.31 -2.38,-0.21 -3.56,1.13l4.12 -0.38c1.57,-3.54 1.24,-1.44 -0.56,-5.24 3.65,4.58 2.94,2.73 4.51,2.25l-0.45 2.31c2.93,-0.94 5.55,-2.56 7.92,-4.19 -0.16,-0.18 -0.25,-0.49 -0.33,-0.65 -1.17,-2.18 -0.93,-2.22 -2.5,-2.73 -0.07,-0.22 -0.08,-0.51 -0.11,-0.68l-0.27 -1.81c-1.16,-10.16 0.91,-38.27 -0.44,-49.26 -0.18,-0.11 -0.46,-0.14 -0.59,-0.19l-3.67 -3.58c-0.06,-0.4 -0.16,-0.51 -0.32,-0.73 -3.69,2.57 -2.79,3.72 -5.87,3.72 -3.02,0 -0.62,0.44 -1.96,-0.62z"/>
   <path class="fil0" d="M66.45 34.45c1.34,1.06 -1.06,0.62 1.96,0.62 3.08,0 2.18,-1.15 5.87,-3.72 0.16,0.22 0.26,0.33 0.32,0.73l3.67 3.58c0.13,0.05 0.41,0.08 0.59,0.19 1.35,10.99 -0.72,39.1 0.44,49.26l0.27 1.81c0.03,0.17 0.04,0.46 0.11,0.68 1.57,0.51 1.33,0.55 2.5,2.73 0.08,0.16 0.17,0.47 0.33,0.65 2.62,-1.44 6.37,-2.95 7.99,-5.29l-1.31 -0.3c2.38,-6.99 -0.44,-42.5 0.88,-46.73l1.46 -2.81c-0.18,-0.17 -0.49,-0.62 -0.58,-0.46 -0.08,0.15 -0.42,-0.33 -0.53,-0.45 -0.09,-0.1 -0.34,-0.31 -0.44,-0.44l-0.6 -0.85c-0.26,-0.53 -0.1,-1.66 -0.1,-2.31 2.32,-1.16 0.98,0.68 2.15,-4.19 0.26,-1.05 -0.22,-1.15 0.72,-1.95 2.21,-1.87 -2.59,-1.35 2.38,-0.61 -0.79,-0.97 1.42,-3.88 -3.29,-1.67l3.87 -1.33 -3.57 -2.37c-1.7,2.91 -20.76,11.89 -25.09,15.23z"/>
   <path class="fil0" d="M126.65 280.38l-0.1 -14.62 0.14 -5.63c-1.3,-1.68 -1.4,-0.98 -1.4,-6l-3.46 -1.5 0.01 -4.85 -4.26 -0.32 0 -5.79 -4.34 -0.16c0,-5.69 -1.16,-5.87 -1.16,-11.38 -1.59,-0.83 -1.83,-0.15 -3.43,-1.3 -0.07,-0.05 -1.95,-2.18 -2.15,-2.44l-1.26 -1.67c-2.46,-2.51 -1.63,-0.3 -4.45,-2.41 -2.7,-2.03 -0.93,-1.4 -1.83,-3.14 -1.52,-2.95 -3.63,-2.72 -6.06,-4.63 -2.01,-1.58 -1.32,-0.31 -1.62,-1.52 -0.07,-0.25 -0.29,-0.26 -0.42,-0.41 5.38,1.43 3.88,1.22 5.57,0.26 -1.89,-2.79 0.6,-1.79 -3.85,-1.73 0.33,-0.03 0.57,0.35 0.68,-0.38l-2.52 -3.22c-0.16,-0.48 -0.48,-0.43 -0.7,-0.66l3 2.99c5.43,0 1.54,0.37 2.61,-1.58l-10.86 -5.88c0.54,3.52 2.88,-0.44 -0.75,2.03 -1.07,-4.19 -1.84,-1.74 -6,-4.31 1.8,5.68 -0.63,4.81 5.21,4.67 -2.76,2.98 -2.34,-2.73 -2.34,5.82l2.45 0.76c2.14,0.81 2.02,-0.56 2.06,6.05l5.02 0.48 0.14 5.75 4.17 0.25c0,3.44 -0.3,4 1.28,5.8 2.16,-2.44 0.75,-3.61 1.51,-5.59l1.71 11.59c4.76,0.16 3.21,0.28 3.21,5.95l4.29 0.26 0 5.91 4.5 0.3 0 4.5c1.22,0.95 -1.35,0.54 2.98,1.5l0.14 5.53 4.38 0.26 0 4.71 3 1.5 0 4.5 3 1.5c0,7.49 -0.85,7.95 1.9,8.25z"/>
   <path class="fil0" d="M55.58 156.62l1.36 -46.52 -1.14 23.47c-0.17,-0.17 -0.35,-0.68 -0.41,-0.55l-0.69 -1.09c-2.56,-4.74 0.37,-2.41 -4.41,-5.32l-0.14 -4.93 -4.5 -0.39 0 -5.68 -4.36 -0.4 -0.04 -5.1c-1.92,-1.3 -2.94,0.19 -2.96,-6.63l-4.48 -0.61c0.01,-1.05 0.08,-3.29 -0.03,-3.96l-1.57 -3.05 2.12 -1.81c-3.47,-1.06 -2.43,-0.57 -4.37,1.87 -0.97,-2.29 -0.01,-3.14 -1.74,-4.9 -3.44,-3.5 -3.01,0.67 -3.62,-3.74 -1.93,-1.62 -15.6,-9.47 -18.28,-10.14l1.66 2.65c1.58,0.92 2.65,0.83 3.65,2.32 1.61,2.36 1.83,6.15 2,8.96l6.06 1.01 0.06 4.53c1.21,0.89 -0.84,0.56 2.95,1.5 0,0.75 -0.08,2.33 0.09,2.99 1.23,5.11 -2.37,-4.68 0.84,1.98 0.08,0.18 0.23,0.43 0.39,0.62 0.17,-0.19 0.34,-0.77 0.4,-0.66l1.1 -4.94c0.33,1.02 0.07,2.27 0.39,3.67l0.61 1.82c2.74,8.43 -0.8,2.44 2.91,7.12 1.69,2.14 1.06,1 1.06,4.76l4.22 0.59c0.33,6.34 2.67,5.7 4.5,6.05l0 5.65 4.49 0.24 0.26 5.64 6.32 0.53c0,3.3 0.4,6.6 1.22,9.65l0.41 1.2c2.71,8.09 -0.94,5.09 2.87,6.23 0,1.04 -0.11,2.98 0.01,3.92 0.27,2.24 -0.61,1.89 0.79,1.45z"/>
   <path class="fil0" d="M222.62 89.86c-1.53,2 -9.93,6.65 -11.95,6.75 -2.13,2.36 -11.55,7.67 -14.86,8.73 1.03,4.81 -0.02,19.14 0.3,25.77 0.41,8.4 0.62,18.09 0.62,26.55l1.05 0 1.07 -30.61 5.61 -0.03 0 -5.75 6.26 0 0.45 -11.61 6.02 0 0 -5.92 5.72 0 0 -6.36 11.54 -0.36 -2.31 -8.67c4.85,-1.27 1.68,1.14 2.82,-2.63 -3.46,-0.13 -0.96,-0.4 -4.27,0.62 -1.64,0.2 0.64,-0.59 -2.31,0.76 -0.68,0.31 -1.4,0.73 -2.03,1.07 -1.69,0.9 -2.04,1.32 -3.73,1.69z"/>
   <path class="fil0" d="M230.01 241.28c-0.6,1.23 -0.67,3.99 -0.66,6.64l-5.82 0 -0.51 11.79 -5.89 0 0 6.09c-1.04,0 -3.75,-0.12 -4.65,0.11 -2.53,0.67 0.25,-0.45 -2.3,1.8 -2.79,2.47 0.04,0.06 -3.56,1.79 -0.18,0.09 -0.4,0.2 -0.56,0.28l-0.96 0.71c-0.09,-0.14 -0.32,0.25 -0.45,0.41 3.44,4.93 4.64,-0.11 6.08,4.23 0,0.01 -0.19,1.25 -3.6,1.62 -4.38,0.49 1.84,-1.8 -3.8,0.29l17.04 9.45 3.14 -1 -2.64 -2.05c-0.24,-0.3 0.18,-0.64 -2.34,-2.32 -1.27,-0.84 -0.45,-0.1 -1.27,-0.9l-1.01 -1.33 7.13 -2.26 0 -4.67 6 0 0.21 -17.83c2.2,0 3.18,0.34 5.12,-0.56l2.69 -2.62c0.11,-0.14 0.26,-0.38 0.4,-0.57 -1.87,-3.99 2.57,3.22 -0.81,-1.08l-2.77 -4.17c2.32,2.46 0.6,1.15 3.17,2.84l3.31 1.35c3.73,1.34 1.87,1.21 3.93,4.43 0.21,-0.07 0.52,-0.41 0.62,-0.24 0.38,0.6 1.32,-0.32 2.76,-1.48l2.15 -2.53c-1.35,-1.64 -17.53,-10.99 -20.17,-11.4 -2.98,0.59 -0.14,-0.64 -1.93,1.03 3.87,0.77 0.48,-0.59 1.92,0.68 2.63,2.33 0.11,1.11 0.03,1.47z"/>
   <path class="fil0" d="M196.28 272.86l7.05 4.18c5.64,-2.09 -0.58,0.2 3.8,-0.29 3.41,-0.37 3.6,-1.61 3.6,-1.62 -1.44,-4.34 -2.64,0.7 -6.08,-4.23 0.13,-0.16 0.36,-0.55 0.45,-0.41l0.96 -0.71c0.16,-0.08 0.38,-0.19 0.56,-0.28 3.6,-1.73 0.77,0.68 3.56,-1.79 2.55,-2.25 -0.23,-1.13 2.3,-1.8 0.9,-0.23 3.61,-0.11 4.65,-0.11l0 -6.09 5.89 0 0.51 -11.79 5.82 0c-0.01,-2.65 0.06,-5.41 0.66,-6.64 -1.93,-2.62 -4.47,-3.38 -7.95,-4.4 0.58,1.92 0.73,1.71 0.95,3.23l-11.69 1.73 -0.41 11.57 -11.65 0.43c0,2.32 0.08,8.68 -0.76,10.34l-0.69 0.89c-0.1,0.14 -0.29,0.27 -0.39,0.41 -0.1,0.15 -0.28,0.29 -0.37,0.45 -1.92,3.36 0.64,2.17 -0.77,6.93z"/>
   <path class="fil0" d="M29.27 56.13l3.99 1.7c0.29,5.5 2.44,3.39 -2.2,4.27 0,7.53 1.38,20.34 -1.15,26.38l-3.61 -1.3c2,2.9 16.12,10.03 16.84,10.2l1.51 0c0,-10.14 -0.47,-37.46 0.19,-47.22l0.15 -2.42c0.01,-0.18 0,-0.48 0.03,-0.72 -2.6,0.98 -14.85,7.35 -15.75,9.11z"/>
   <path class="fil0" d="M1.37 71.88c-0.37,2.47 -0.03,1.82 2.17,3.25 0.18,0.11 1.14,0.57 1.43,0.77 1.92,1.29 0.74,0.35 1.35,1.24 2.68,0.67 16.35,8.52 18.28,10.14l1.7 -0.1 3.61 1.3c2.53,-6.04 1.15,-18.85 1.15,-26.38 4.64,-0.88 2.49,1.23 2.2,-4.27l-3.99 -1.7c-4.59,1.66 -10.04,5.34 -14.05,7.67 -4.64,2.68 -9.06,4.69 -13.85,8.08z"/>
   <path class="fil0" d="M126.69 260.13l0.02 -7.1 -0.23 -23.65c0.01,-0.97 -0.1,-1.93 -0.24,-2.5 -0.23,-0.89 -0.28,0.54 -0.46,-1.05 -0.03,-0.27 -0.2,-0.32 -0.29,-0.49l-29.84 -17.05c-1.07,1.95 2.82,1.58 -2.61,1.58l-3 -2.99c0.22,0.23 0.54,0.18 0.7,0.66l2.52 3.22c-0.11,0.73 -0.35,0.35 -0.68,0.38 4.45,-0.06 1.96,-1.06 3.85,1.73 -1.69,0.96 -0.19,1.17 -5.57,-0.26 0.13,0.15 0.35,0.16 0.42,0.41 0.3,1.21 -0.39,-0.06 1.62,1.52 2.43,1.91 4.54,1.68 6.06,4.63 0.9,1.74 -0.87,1.11 1.83,3.14 2.82,2.11 1.99,-0.1 4.45,2.41l1.26 1.67c0.2,0.26 2.08,2.39 2.15,2.44 1.6,1.15 1.84,0.47 3.43,1.3 0,5.51 1.16,5.69 1.16,11.38l4.34 0.16 0 5.79 4.26 0.32 -0.01 4.85 3.46 1.5c0,5.02 0.1,4.32 1.4,6z"/>
   <path class="fil0" d="M45.02 47.02c-0.03,0.24 -0.02,0.54 -0.03,0.72l-0.15 2.42c-0.66,9.76 -0.19,37.08 -0.19,47.22 2.85,1.03 1.17,0.73 4.87,-0.47 -0.52,3.33 -0.59,2.57 3.76,4.19l2.25 -1.55c0.11,-0.29 0.4,-0.21 0.6,-0.32 -2.09,-1.68 -1.28,-8.04 -1.28,-11.63 0.01,-9.36 -0.54,-32.6 0.23,-39l-6.41 -3.47 -3.65 1.89z"/>
   <path class="fil0" d="M175.03 241.61c3.59,1.09 8.17,0.14 12.04,0.14l0.48 -11.58 11.53 -0.42 0.46 -11.78 5.79 0 -0.01 -6.07 5.92 -0.01 -0.44 -6.52 -12 0.04 0 6.11 -5.88 0c-0.18,2.18 0.48,1.32 -2.54,4.15 -2.4,2.24 -0.25,1.37 -4.94,2.16l0 5.69 -6 0.25 0 5.81 -4.46 0.32 0.05 11.71z"/>
   <path class="fil0" d="M125.49 225.34c0.09,0.17 0.26,0.22 0.29,0.49 0.18,1.59 0.23,0.16 0.46,1.05 0.14,0.57 0.25,1.53 0.24,2.5l12.04 -0.32c0,-8.13 1.02,-15.3 1.02,-23.69l3.74 -1.45c1.91,-1.18 2.58,-2.81 4.99,-0.8l-4.96 0.85c1.08,1.31 1.27,3.45 6.73,1.4l0.48 -4.09c-1.01,0.24 -2.76,-0.77 -1.77,1.09 1.92,-3.02 0.64,-1.35 3.11,-0.8 1.88,0.42 -1.53,-0.11 1.85,0.54 1.55,0.29 0.79,0.28 2.34,0.12 -1.78,-2.81 -0.93,-2.78 -3.75,-5.1 0.92,-2.11 0.61,-0.19 -0.35,-0.63 -0.04,-0.02 -0.28,-0.07 -0.41,-0.12l1.47 -3.47c-3.41,-1.75 -3.94,-1 -7.01,0.91l-16.65 9.55c-2.42,1.48 -1.63,0.31 -2.86,2.75 -0.63,2.66 1.32,19.29 -1,19.22z"/>
   <path class="fil0" d="M123.48 143.19c1.28,1.42 1.98,2.55 4.7,1.41l33.87 -19.53 0.76 1.99 1.19 5.92c-0.6,-2.92 0.17,-4.57 1.4,-6.76l1.52 6.71 0.38 -11.75c-2.43,-1.77 -7.69,-5.36 -10.46,-5.53l-0.26 3.79c0.01,-0.06 0.15,0.11 0.21,0.08 -13.41,0.15 -3.92,1.42 -11.95,4.05 -1.49,0.49 -2.08,0.68 -3.39,1.04 -8.51,2.34 -2.13,3.3 -9.28,5.68 -1.53,0.51 -1.83,0.55 -3.37,1.33 -1.32,4.4 0.27,-0.54 0.2,1.75 -0.01,0.41 1.79,0.02 -0.5,0.84 -1.06,0.37 -2.81,0.13 -4.65,0.7 1.27,3.54 -1.56,2.78 3.69,2.95l-4.06 5.33z"/>
   <path class="fil0" d="M56.94 110.1l-0.25 -2.99c-1,-2.24 -0.12,-0.5 -1.52,-1.97 -1.17,-1.24 -0.95,-0.92 -1.68,-1.36 -2.11,-1.25 -7.81,-3.34 -10.35,-6.4 -0.72,-0.17 -14.84,-7.3 -16.84,-10.2l-1.7 0.1c0.61,4.41 0.18,0.24 3.62,3.74 1.73,1.76 0.77,2.61 1.74,4.9 1.94,-2.44 0.9,-2.93 4.37,-1.87l-2.12 1.81 1.57 3.05c0.11,0.67 0.04,2.91 0.03,3.96l4.48 0.61c0.02,6.82 1.04,5.33 2.96,6.63l0.04 5.1 4.36 0.4 0 5.68 4.5 0.39 0.14 4.93c4.78,2.91 1.85,0.58 4.41,5.32l0.69 1.09c0.06,-0.13 0.24,0.38 0.41,0.55l1.14 -23.47z"/>
   <path class="fil0" d="M107.29 134.77c2.25,0.85 2.03,0.91 3.99,1.19l1.53 -1.14c1.21,-2.05 -0.19,0.68 0.22,-0.86l5.66 -0.65c0.02,-0.01 0.08,-0.14 0.09,-0.16l5.05 -3.6c11.31,-6.8 -1.03,-0.86 15.08,-6.92l5.89 -2.82c-0.48,-1.98 -0.78,-2.58 0.04,-5l1.06 -2.07c1.23,0.66 -1.74,-0.17 3.39,2.76 2.12,-1.47 0.42,-0.88 1.82,-1.7l2.11 -0.44c-1.49,-1.96 -6.7,-4.73 -9.63,-5.57 -0.27,0.32 -0.92,1.08 -1.33,1.48 -3.74,3.73 -5.42,1.6 -10.1,4.59 -3.37,2.16 -1.64,3.64 -4.98,3.95 -0.13,0.02 -0.36,-0.01 -0.5,-0.01 -2.32,0.14 -3.48,0.1 -5.31,1.87l-1.37 1.73c-1.66,1.75 -2.7,1.31 -3.71,3.55l-3.56 -1c-0.44,2.31 -1.17,1.77 1.1,3.08 -5.68,1.5 -3.3,-3.32 -10.08,-0.96 0.67,2.23 0.4,1.05 1.07,1.94 0.12,0.16 0.26,0.35 0.4,0.51 0.12,0.15 0.28,0.3 0.41,0.44l3 3.17c0.07,0.1 0.23,0.32 0.34,0.48 -2.54,1.55 -0.64,0.37 -1.68,2.16z"/>
   <path class="fil0" d="M163.13 167.09c-3.8,0.79 -16.33,8.69 -20.65,11.24 -2.81,1.67 -6.77,3.99 -9.9,5.83 -6.84,4 -4.34,3.15 -10.85,1.04 1,1.44 -1.42,1.68 1.14,1.22 -2.62,0.56 -1.15,-0.34 -2.35,1.5 -0.71,-3.4 -0.18,-1.05 -1.23,-2.39 -3.47,1.1 -1.05,1.45 -4.48,1.09 2.15,2.45 4.09,2.91 6.81,4.55 7.47,4.5 7.69,1.29 20.77,-6.21 8.87,-5.08 16.87,-9.79 26.13,-15.08l0.03 -46.22c-0.35,-2.04 0.15,-0.97 -0.93,-2.27 -0.09,2.52 -1.31,45.93 0.42,47.23 -0.06,-2.43 -0.12,-5.12 -0.28,-7.53l-1.4 -5.84c-0.07,-0.13 -0.28,-0.23 -0.33,-0.54 -0.05,-0.31 -0.21,-0.37 -0.32,-0.53l-0.31 8.86 -1.3 -5.98c-0.14,4.67 -1,7 -1.23,11.56 1.83,-0.53 -0.57,-0.1 -0.83,-0.01 3.42,-0.69 0,0.24 1.09,-1.52z"/>
   <path class="fil0" d="M223.55 62.06l-0.09 17.67c2.21,-1.37 2.48,-1.17 2.72,-4.5 5.39,0.23 6.15,-1.13 10.88,-1.13 -0.34,4.06 -1.6,3.14 -4.94,4.95 -0.18,0.1 -0.39,0.23 -0.55,0.32l-1.07 0.73c1.67,1.55 -1.7,0.97 3.25,1.33 1.22,0.09 0.36,-0.85 3.77,-0.23 2.45,-0.37 3.43,-1.47 6.02,-2.96 1.77,-1.02 4.11,-2.38 6.18,-3.12l2.15 -1.8c0.11,-0.08 0.35,-0.23 0.44,-0.29 0.09,-0.06 0.31,-0.17 0.44,-0.28 -2.11,-2.18 -26.12,-15.92 -28.58,-16.25 -1.7,0.46 -1.39,-0.08 -1.22,1.52l5.1 1.83c-0.21,0.05 -0.51,-0.03 -0.61,0.23l-3.6 1.68c-0.05,0.04 -0.23,0.17 -0.29,0.3z"/>
   <path class="fil0" d="M222.62 89.86c1.69,-0.37 2.04,-0.79 3.73,-1.69 0.63,-0.34 1.35,-0.76 2.03,-1.07 2.95,-1.35 0.67,-0.56 2.31,-0.76 0.66,-0.66 0.53,-0.58 1.53,-1.31 1.15,-0.85 0.48,-0.35 1.92,-1.23 1.61,-0.99 2.22,-1.19 3.38,-2.6 -3.41,-0.62 -2.55,0.32 -3.77,0.23 -4.95,-0.36 -1.58,0.22 -3.25,-1.33l1.07 -0.73c0.16,-0.09 0.37,-0.22 0.55,-0.32 3.34,-1.81 4.6,-0.89 4.94,-4.95 -4.73,0 -5.49,1.36 -10.88,1.13 -0.24,3.33 -0.51,3.13 -2.72,4.5l0.09 -17.67 -6 -1.23c-1,2.85 -0.59,15.02 -0.67,20.13 -0.08,4.57 -0.63,3.5 2.88,3.87 -3.72,4.15 -0.42,-0.75 -3.32,3.41 2.07,-0.68 3.59,-1.24 5.32,0.36 -4.65,-0.03 -4.18,1.03 -4.79,2.39 4.14,-0.22 1.88,-0.62 5.65,-1.13z"/>
   <path class="fil0" d="M825.63 274.95l1.47 -0.57c-0.86,3.2 -1.07,-0.15 -0.81,-1.38 1.59,0 1.74,-0.21 2.57,0.77 0.01,0.01 0.01,0.12 0.05,0.17l4.5 -1.19c1.48,1.18 1.43,0.89 1.66,2.03 0.09,-0.16 0.3,-0.55 0.35,-0.43l0.93 -1.23c1.19,-1.85 -0.18,1.56 0.44,-0.84l-2.56 -2.47c-5.32,-2.53 -10.88,-0.53 -11.04,-5.18 4.42,-2.14 5.44,-0.08 7.22,2.2l7.43 0.05c0.37,-11.65 -15.83,-9.69 -20.02,-7.32 -8.9,5.03 -2.42,16.8 7.81,15.39z"/>
   <path class="fil1" d="M646.61 124.35l13.09 11.69c2,2.22 3.8,5.48 5.61,7.22l0.03 -26.17c-8.44,4.09 -12.92,1 -25.44,2.24"/>
   <path class="fil0" d="M111.28 135.96c1.58,2.1 9.94,6.79 12.2,7.23l4.06 -5.33c-5.25,-0.17 -2.42,0.59 -3.69,-2.95 1.84,-0.57 3.59,-0.33 4.65,-0.7 2.29,-0.82 0.49,-0.43 0.5,-0.84 0.07,-2.29 -1.52,2.65 -0.2,-1.75 1.54,-0.78 1.84,-0.82 3.37,-1.33 7.15,-2.38 0.77,-3.34 9.28,-5.68 1.31,-0.36 1.9,-0.55 3.39,-1.04 8.03,-2.63 -1.46,-3.9 11.95,-4.05 -0.06,0.03 -0.2,-0.14 -0.21,-0.08l0.26 -3.79c-0.89,-1.15 0.04,-0.46 -1.26,-1.3 -1.55,-1.01 -0.66,-0.48 -2.36,-0.99l-2.11 0.44c-1.4,0.82 0.3,0.23 -1.82,1.7 -5.13,-2.93 -2.16,-2.1 -3.39,-2.76l-1.06 2.07c-0.82,2.42 -0.52,3.02 -0.04,5l-5.89 2.82c-16.11,6.06 -3.77,0.12 -15.08,6.92l-5.05 3.6c-0.01,0.02 -0.07,0.15 -0.09,0.16l-5.66 0.65c-0.41,1.54 0.99,-1.19 -0.22,0.86l-1.53 1.14z"/>
   <path class="fil0" d="M426.27 284.14l0.71 -6.72c2.83,0.23 5.67,0.52 7.29,-0.5l0.25 -3.96c3.03,2.21 3.95,5.26 6.6,6.26 1.62,-1.37 2.11,-1.5 4.49,-1.68 2.29,-0.17 5.56,-0.04 7.86,0.09l0.01 -9.24c-3.27,-0.2 -2.84,-0.85 -7.07,0.17l-0.5 -3.28 -0.48 0 -0.15 5.89 -4.87 -4.64c-2.24,1.62 -0.06,0.75 -2.44,1.11 -0.49,0.08 -2.93,0.02 -3.59,0 -2.65,-0.06 -5.26,-0.07 -7.93,-0.04l-0.26 -2.15 -0.09 0 0.17 18.69z"/>
   <path class="fil0" d="M642.09 262.38c-0.17,-0.03 -0.43,0.02 -0.53,0.03l-1.41 0.28c-1.91,0.23 -5.36,-0.96 -6.83,0.85 -1.48,1.83 0.06,0.93 -1.87,1.65l0 12.27 1.28 -0.45c0.15,-0.2 0.5,-0.66 0.6,-0.78 0.08,-0.1 0.28,-0.35 0.38,-0.46l0.91 -1.02c3.67,1.25 1.91,1.28 3.97,-0.57l-0.04 2.43c0.01,-0.12 0.27,-2.18 0.28,-2.22 0.5,-1.32 0.41,-0.99 1.07,-1.79l1.22 0.86c0.78,2.71 0.11,0.84 1.12,1.23 4.03,-2.35 1.37,1.2 3.32,-2.91 0.7,1.64 0.28,0.94 1.82,2.05 1.81,-2.42 0.16,1.84 0.26,-1.01 0,-0.13 -0.23,-1.2 -0.24,-1.45l3.47 1.55c4.43,0.47 7.93,2.61 7.84,-4.52 -0.08,-6.31 -2.91,-4.65 -7.76,-3.75l-0.49 -4.52 -0.54 10.86 -7.83 -8.61z"/>
   <path class="fil0" d="M738.13 277.18l5.8 -3.06c0.11,-0.06 0.34,-0.19 0.51,-0.28 1.61,0.85 0.51,0.17 1.72,2.24 -0.08,-4.79 0.07,-1.5 1.13,-2.74l2.32 -7.13 2.68 9.3c1.97,1.42 -0.86,0.56 2.14,-0.37 0.11,-0.04 0.43,-0.11 0.55,-0.14l1.13 -0.36c3.77,-1.15 2.64,-0.76 3.65,1.29l0.53 -1.39c0,-3.07 -3.85,-13.82 -5.65,-16.33l-9.6 -0.1c-1.45,2.42 -6.44,16.05 -6.91,19.07z"/>
   <path class="fil0" d="M86.63 170.34c1.83,2.77 10.58,6.63 13.96,8.69 2.45,1.48 12.31,7.5 14.22,7.59 3.43,0.36 1.01,0.01 4.48,-1.09 1.05,1.34 0.52,-1.01 1.23,2.39 1.2,-1.84 -0.27,-0.94 2.35,-1.5 -2.56,0.46 -0.14,0.22 -1.14,-1.22 -1.69,-1.82 -12.98,-7.83 -15.61,-9.41 -4.97,-2.99 -12.21,-6.13 -15.63,-9.42l0.38 -41.59c-1.5,1.24 -1.65,2.35 -1.67,5.55l0.29 38.29c-1.25,0.45 -0.58,0.01 -1.81,0.82 -3.38,2.26 2.49,-0.14 -1.05,0.9z"/>
   <path class="fil0" d="M939.29 274.55l0.41 0c-0.61,-2.39 -0.29,-1.99 0.33,-4.67l3.55 0.46c2.06,-0.85 1.18,-1.57 3.93,0.22 -0.18,-3.68 -0.43,-1.37 1.03,-2.47 2.49,-5.1 8.13,-5.27 10.63,-0.14l1.92 3.35c0.64,0 3.23,0.1 3.62,0.04 2.16,-0.37 1.4,0.34 2.21,-1.41 0.11,0.16 0.23,0.25 0.27,0.52l1.2 2.44c0.58,-10.93 -5.12,-15.22 -15.74,-15 -10.73,0.21 -13.58,6.02 -13.36,16.66z"/>
   <path class="fil0" d="M225.84 234.22c2.19,-0.37 22.49,-12.15 25.88,-14.42 -1.07,-0.9 -2.48,-1.17 -2.32,-2.25 0.55,-3.68 1.09,2.87 0.96,-13l-3.24 0.58 0 6.24 -6.14 0c0,9.63 0.17,2.7 -5.94,8.26 2.02,3.46 1.81,-2.18 1.95,4.27l-7.61 0.06 -0.31 5.27c0.03,0.14 0.11,0.35 0.16,0.48 0.06,0.16 0.2,0.37 0.27,0.51 0.09,0.19 0.65,0.9 0.8,1.1 -4.26,-0.54 -5.01,-0.22 -6.69,3.31 0.2,0.06 0.43,0.16 0.51,0.34l1.12 -0.21c0.14,-0.06 0.39,-0.36 0.6,-0.54z"/>
   <path class="fil0" d="M842.06 271.75l2.45 -1.77 -0.33 3.33c1.6,-3.74 1.36,0.66 1.39,-3.89 1.11,1.82 -0.39,0.77 1.39,1.38l1.57 0.01c0.8,-0.14 0.12,0.5 1.3,-0.83 0.08,-0.09 0.22,-0.3 0.3,-0.4l1.65 -1.95c1.49,-3.73 2.34,-3.25 7,-3 1.08,1.24 1.81,3.21 3.13,4.75l7.84 -0.08c-1.81,-8.63 -5.18,-11.88 -15.36,-11.4 -8.85,0.42 -11.58,5.25 -12.33,13.85z"/>
   <path class="fil0" d="M907.22 267.03l-0.87 2.28c4.57,-0.01 5.31,0.57 6.73,-0.9 0.48,4.53 -0.31,0.29 1.92,2.19l0.28 -2.3c2.28,-5.47 6.4,-4.41 10.39,-2.14 1.16,1.77 1.53,1.67 1.41,3.87 2.71,-1.89 1.55,0.14 2.29,-3.9 -1.24,1.79 -0.4,-3.51 0.49,2.97 3.06,-0.55 0.94,1.73 2.41,-1.71l0.77 1.5c0.11,-0.19 0.64,-1.39 0.65,-1.43l1.69 3.58c0.15,-18.76 -28.25,-15.65 -28.16,-4.01z"/>
   <path class="fil0" d="M873.86 272.13c0.86,0.76 0.55,1.92 3.82,1.85 2.32,-0.06 2.29,-0.48 4.93,1.15l0.25 1.51 0.81 -1.53 8.92 -0.15c1.7,1.44 1.65,-2.24 1.26,2.1 0.77,-1.61 0.85,-1.97 3.4,-2.05 2.94,-0.1 3.56,-0.49 2.92,1.89l0.75 -8.55 -8.49 0.31 -9.41 -0.98c-1.53,1.05 -1.11,0.95 -2.85,0.59l-4.42 -1.39c0.01,-2.34 -0.72,1.15 -1.04,-0.01 -0.04,-0.15 -0.33,0.06 -0.56,0.02l-0.06 -3.76c3.7,-2.58 4.24,-1.89 8.82,-2.12l-0.23 -2.91 -8.69 0.06 -0.13 13.97z"/>
   <path class="fil0" d="M349.56 265.33c-0.02,7.36 2.24,14.16 -6.12,14 -1.43,0.94 0.93,1.04 -2.12,0.14l-8.42 -0.8c-0.08,-0.2 -0.53,0.27 -0.78,0.44 3.96,9.3 21.78,9.5 25.48,-0.22l-1.29 1.24c0.47,-5.04 1.28,-1.35 -1.67,-3.31 -1.69,-1.13 -1.19,0.08 -2.06,-2 0,0.04 0.54,1.04 -0.75,2.55 -2.81,-2.85 -2.14,-0.64 -2.25,-5.82 4.02,-0.26 2.97,0.25 4.72,0.91 -0.18,-0.21 -1.92,2.21 -0.22,-1.08 1,-1.94 -0.58,-0.19 1.76,-1.21l2.72 1.97 -0.39 5.68c0.95,-3.16 0.41,-8.37 0.41,-12.29 -4.52,-0.85 -1.04,-1.27 -3.34,-0.92l-3.41 0.78c-3.19,-3.64 -0.9,-2.88 -0.76,-3.01 -0.83,3.95 -0.49,1.93 -1.51,2.95z"/>
   <path class="fil0" d="M473.86 268.86c1.83,-1.59 -2.14,0.02 1.8,-0.82 6.07,-1.29 4.38,2.18 5.54,-1.84 1.75,1.49 0.63,-0.12 1.49,2.52 1.06,-2.67 1.59,-4.58 5.62,-4.25 4.14,0.34 3.04,2.27 4.76,5.1l7.66 -0.03c0.85,-4.87 -1.84,-7.78 -4.76,-9.76 -9.36,-5.05 -20.73,-1.28 -22.11,9.08z"/>
   <path class="fil0" d="M664.78 284.14c-0.02,-2.37 1.2,-4.21 2.2,-6.05l5.29 0.96 0.1 -4.58 -5.93 -0.09c-3.34,-5.25 -1.52,-6.45 -0.31,-12.03 -0.5,0.91 0.19,2.19 0.21,2.29 2.45,-0.73 2.79,-0.45 5.79,-0.19 0.01,2.91 0.18,3.06 1.3,4.29l0.06 -4.03 14.54 -0.11 0.01 -6.4 -23.11 -0.38 -0.15 26.32z"/>
   <path class="fil0" d="M548.57 266.44c-3.28,2.07 -6.62,0.57 -10.75,0.98l-3.71 0.96 0 4.98c1.16,0.28 4.35,1.01 5.24,1.15 3.65,0.6 1.25,0.77 3.19,-1.46l2.71 2.18 0.98 -0.75c2.42,-1.23 -1.4,-0.04 1.59,-0.69l12.89 0.04 -0.34 -11.88c0.01,0.04 0.93,-0.32 -0.05,1.89 -1.62,3.66 -1.51,-0.5 -3.46,2.89 -1.18,-2.51 -3.43,-3.33 -3.16,-6.6l-0.25 11.23 -4.88 -4.92z"/>
   <path class="fil0" d="M768.19 279.77l0.89 -5.27 0.72 -2.9c1.13,-0.05 3.12,-0.19 4.24,-0.08l2.38 0.56c0.15,0.05 0.4,0.21 0.52,0.25 0.12,0.05 0.35,0.16 0.54,0.23 2.69,-2.3 -0.26,-0.76 3.63,-0.95l1.7 -0.19c0.04,-0.03 0.19,-0.16 0.21,-0.2 0.03,-0.05 0.07,-0.25 0.08,-0.3 0.07,-0.49 0.68,0.49 -0.44,-1.54 3.4,2.09 1.14,0.5 2.86,0.83 -1.68,-3.61 -4.31,-5.72 -6.78,-8.67 -3.74,-4.45 -2.94,-3.46 -10.55,-3.42l0 21.65z"/>
   <path class="fil0" d="M852.88 278.75c-0.51,0.45 0.06,1.93 -2.25,-0.53l-1.4 -2.26c-0.54,1.23 0.42,1.74 -4.73,1.33 1.11,3.68 0.61,2.27 -0.2,3.23 2.69,4.6 7.56,5.88 14.66,5.22 6.8,-0.63 7.63,-3.21 10.48,-8.36 -0.24,-3.17 0.6,-1.23 -0.78,-3.02l-6.75 0.07c-3.36,4.48 -1.06,6 -9.03,4.32z"/>
   <path class="fil0" d="M373.47 275.42c-1.66,1.66 -1.38,-2.79 -1.39,2.08l-5.29 0.25c-0.93,-1.16 -2.36,-1.27 -0.95,-7.12l7.58 -1.05 0.03 -4.87 7.7 0.24 -0.23 4.18c5.57,-1.87 -5.3,1.76 3.13,-0.43 6.63,-1.72 -1.07,-1.36 2.33,-0.96l1.73 1.17c0.92,0.63 0.56,-2.74 0.96,1.07 0.85,-1.02 0.39,-0.03 0.94,-1.77 0.73,-2.28 -0.05,1.26 0.27,-1.26 0.17,-1.36 0,-1.16 -0.25,-2.32l-3.48 -0.73c-1.58,-0.48 -0.63,-0.27 -0.77,-0.29l-3.88 0.15c-0.19,-0.01 -0.4,-0.05 -0.6,-0.06l-15.01 1.55c-0.26,-1.25 -0.5,-5.12 -1.63,-5.12l0.11 25.46 8.57 -0.21 0.13 -9.96z"/>
   <path class="fil0" d="M738.13 277.18l-2.9 8.37 8.16 -0.05c1.97,-2.99 -0.09,-3.1 3.7,-3.65 1.89,-0.28 5.14,0.03 7.52,-0.23 0.87,-0.74 1.07,-3.04 4.06,-2.5l1.34 0.4c3.91,-0.1 -0.92,2.37 2.12,-0.87 -0.19,-2.36 -0.26,-2.58 -1.84,-4.11l-0.53 1.39c-1.01,-2.05 0.12,-2.44 -3.65,-1.29l-1.13 0.36c-0.12,0.03 -0.44,0.1 -0.55,0.14 -3,0.93 -0.17,1.79 -2.14,0.37l-4.9 -0.01 -0.1 -2.16c-1.06,1.24 -1.21,-2.05 -1.13,2.74 -1.21,-2.07 -0.11,-1.39 -1.72,-2.24 -0.17,0.09 -0.4,0.22 -0.51,0.28l-5.8 3.06z"/>
   <path class="fil0" d="M717.13 278.14c-1.54,1.66 -0.61,-1.95 -1.49,1.9 -0.16,-2.93 -2.82,-2.7 -7.59,-3.32 0.09,4.11 -1.62,2.92 -6.1,2.9 -2.75,-3.32 0.14,-2.47 -3.48,-3.34 -1.17,-0.29 -5.2,-0.1 -6.58,-0.09 1.01,7.61 3.74,9.34 11.72,9.68 6.57,0.27 12.68,-0.82 13.52,-7.73z"/>
   <path class="fil0" d="M973.84 277.03l0.41 8.55 21.83 -0.15 0.03 -6.03 -14.44 -0.59 -0.13 -7.53 0.29 0.16 -0.94 6.28 -1.05 -4.12c-2.1,2.03 -2.64,1.41 -4,2.07l-0.63 0.4c-0.07,0.04 -0.25,0.2 -0.31,0.24 -1.2,0.82 0.71,0.24 -1.06,0.72z"/>
   <path class="fil0" d="M838.48 278.89c-2.9,0.29 -0.2,-1.16 -3.3,-2.26l-2.33 1.04c-3.43,1.85 1.7,-3.03 -1.23,0.97l-2.19 -1.96c0.07,4.21 -1.98,3.05 -6.51,2.75 -2.78,-4.53 -2.19,-3.51 -9.38,-3.13 -0.99,6.8 4.7,9.15 10.83,9.53 8.17,0.5 12.17,-0.97 14.11,-6.94z"/>
   <path class="fil0" d="M404.7 275.4c-0.7,2.27 1.16,1.28 -1.66,0.65 -1.42,2.3 -0.49,-0.2 -5.15,1.31l-0.73 -2.04c-1.53,1.42 -0.27,-0.51 -1.58,2.36l-2.39 7.86 8.15 -0.04c1.03,-1.38 0.39,-1.12 1.31,-2.25 1.75,-2.16 3.15,-1.41 9.93,-1.73 1.74,-0.44 1.5,0.14 1.5,-1.11l2.34 1.61 0.92 -0.4c0.21,-0.23 0.52,-0.77 0.64,-0.61 0.12,0.16 0.45,-0.44 0.59,-0.59 0.14,-0.15 0.43,-0.45 0.56,-0.6 0.14,-0.14 0.37,-0.38 0.53,-0.58 0.41,1.21 0.52,1.14 0.43,2.51l0.42 -1.14c0.07,-2.75 -0.62,-4.39 -2.17,-6.2 -0.44,1.01 -0.71,1.79 -0.77,1.66 -0.05,-0.12 -0.35,0.35 -0.48,0.56l-3.31 -0.27c-2.63,-0.2 -0.68,-0.18 -3.44,0.27 0.69,-3 1.7,-0.86 -0.17,-3.07 -0.39,2.16 0.71,1.09 -1.33,1.97l-4.14 -0.13z"/>
   <path class="fil0" d="M534.26 284.14l-0.12 -3.46c5.22,1.17 3.48,-0.63 6.07,0l2.12 1.96 0.21 -9.59c-1.94,2.23 0.46,2.06 -3.19,1.46 -0.89,-0.14 -4.08,-0.87 -5.24,-1.15l0 -4.98 3.71 -0.96c4.13,-0.41 7.47,1.09 10.75,-0.98 -1.2,-2.59 -3.26,-4.67 -5.11,-6.67 -2.33,-2.54 -5.02,-1.63 -9.28,-1.6l0.08 25.97z"/>
   <path class="fil0" d="M577.47 264.65c10.78,0.13 6.57,11.87 6.5,11.98 -1.19,2.07 -7.83,5.13 -7.9,0.01 -0.46,-2.79 -0.35,-1.39 -1.83,-2.08 -2.56,-1.18 -2.52,1.5 -6.15,-0.17l-0.22 3.06c1.54,1.28 0.84,-1 1.86,3.53 3.03,-3.01 -3.08,1.68 1.48,-0.71l0.55 -0.32c2.14,-1.12 1.97,0.33 5.01,0.02 9.32,-0.93 5.97,1.46 10.05,-0.9 0.14,-0.08 0.33,-0.21 0.47,-0.29l4.91 0.51c0.96,-2.88 1.01,-2.28 1.22,-5.85 -0.42,-0.38 -1.99,0.57 -1.03,-3l-1.96 3.22c-1.5,-3.69 -1.94,-0.06 -1.71,-3.31l-2.12 3.55 -2.22 -4.77c0.21,-0.07 0.54,-0.05 0.66,-0.06 0.1,-0.01 0.45,-0.02 0.56,-0.04 0.07,0 0.34,0.04 0.4,0.02l0.35 -0.1c0.05,-0.1 -0.04,-2.44 -0.04,-2.51 2.04,1.89 0.59,2.1 2.07,1.62 0.11,-0.04 0.45,-0.22 0.57,-0.29l2.26 0.61c0.53,-3.74 -0.2,-0.74 1.79,-1.82l-1.92 -3.4c-0.16,0 -0.4,0.07 -0.48,0.08l-0.88 0.13c-8.53,0.86 -11.96,-2.39 -12.25,1.28z"/>
   <path class="fil0" d="M664.78 284.14c1.36,2.22 -0.87,0.86 2.82,1.51l9.03 -0.03c3.9,0 7.93,0.05 11.89,-0.14l0.01 -6.58 -15.09 -0.11 0.09 -4.13 -1.16 -0.19 -0.1 4.58 -5.29 -0.96c-1,1.84 -2.22,3.68 -2.2,6.05z"/>
   <path class="fil0" d="M967.44 278.82l-1.47 -1.63 -2.79 1.75 -0.75 -1.65c-0.75,0.64 -0.46,0.2 -1.23,1.18 -0.46,0.59 -0.26,0.37 -0.64,1.36 0.02,-0.15 0.55,-0.32 -0.25,-1.05 -1.5,-1.38 -0.27,1.27 -2.89,0.05 -5.03,0.87 -5.83,1.06 -8.69,-2.09 -0.09,-0.09 -0.31,-0.19 -0.37,-0.46 -0.06,-0.27 -0.24,-0.32 -0.37,-0.47 0.02,4.4 -0.89,0.23 -5.38,2.06l-0.61 -2.57c-1.48,3.06 0.82,3.01 -2.3,-0.75l-0.41 0c1.91,14.06 22.07,15.13 28.15,4.27z"/>
   <path class="fil0" d="M592.2 279.29l-4.91 -0.51c-0.14,0.08 -0.33,0.21 -0.47,0.29 -4.08,2.36 -0.73,-0.03 -10.05,0.9 -3.04,0.31 -2.87,-1.14 -5.01,-0.02l-0.55 0.32c-4.56,2.39 1.55,-2.3 -1.48,0.71 -1.02,-4.53 -0.32,-2.25 -1.86,-3.53 0.08,-0.17 0.14,-0.41 0.16,-0.54l0.23 -1.16c0.29,-3.22 -0.91,-3.55 0.14,-10.89l0.21 -5.46 13.92 -0.37c-1.36,-1.22 -0.43,-0.76 -3.35,-0.97l-11.88 0.23 0.1 27.03c10.6,1.59 20.51,0.8 24.8,-6.03z"/>
   <path class="fil0" d="M380.92 269.13l-7.5 0.45 -7.58 1.05c-1.41,5.85 0.02,5.96 0.95,7.12l5.29 -0.25c0.01,-4.87 -0.27,-0.42 1.39,-2.08l3.16 0.58 1.43 2.14c1.71,-0.83 3,-3.76 6.13,-1.73 2.62,1.7 -0.54,2.04 2.37,0.84l-0.96 -2.87c1.89,-1.88 3.07,-1.88 3.47,-4.4 -0.4,-3.81 -0.04,-0.44 -0.96,-1.07l-1.73 -1.17c-3.4,-0.4 4.3,-0.76 -2.33,0.96 -8.43,2.19 2.44,-1.44 -3.13,0.43z"/>
   <path class="fil0" d="M672.37 274.47l1.16 0.19 12.43 0.17 0.25 -6.18 -12.78 0.09c-1.12,-1.23 -1.29,-1.38 -1.3,-4.29 -3,-0.26 -3.34,-0.54 -5.79,0.19 -0.02,-0.1 -0.71,-1.38 -0.21,-2.29 -1.21,5.58 -3.03,6.78 0.31,12.03l5.93 0.09z"/>
   <path class="fil0" d="M553.7 260.13c-0.27,3.27 1.98,4.09 3.16,6.6 1.95,-3.39 1.84,0.77 3.46,-2.89 0.98,-2.21 0.06,-1.85 0.05,-1.89l0.34 11.88 -0.84 3.7c-2.35,0.02 -3.97,0.34 -5.91,0.32l-4.53 -0.56c0.62,1.27 1.4,1.46 0.38,2.72 2.37,5.39 4.25,6.35 11.74,5.3l0.48 -27c-0.88,-0.08 -4.83,-0.42 -5.5,-0.33 -3.12,0.41 -2.56,-0.72 -2.83,2.15z"/>
   <path class="fil0" d="M598.68 278.35c2.9,9.19 18.08,10.02 24.96,3.25l-1.02 -3.97c-2.05,0.71 -4.63,1.88 -6.31,0.68 -4.59,1.38 -5.89,0.93 -9.57,-0.9 -1.26,0.5 0.43,0.94 -2.31,-1.16 0.47,2.05 0.98,2.88 0.94,3.01 -2.4,-1.94 -4.14,-0.78 -5.46,-0.66 -0.08,0.01 -0.34,-0.02 -0.41,-0.01l-0.82 -0.24z"/>
   <path class="fil0" d="M692.52 265.38c1.67,-1.49 1.5,1.93 1.28,-1.45l0.71 4.11c-0.21,-3.2 -0.44,-0.85 0.33,-4.17 0.98,1.12 1.51,0.15 0.98,2.75 0.58,-2.32 1.29,-1.24 3.5,-2.09l1.69 -0.94c-0.52,2.88 -1.71,1.09 0.85,2.72 -0.27,-2.02 0.14,-2.31 2.52,-2.45 6.49,-0.38 0.26,5.23 12.45,2.71 -0.75,-6.7 -2.64,-4.89 -4.95,-7.81 -8.59,-1.73 -17.46,-1.85 -19.36,6.62z"/>
   <path class="fil0" d="M298.81 264.1c0.24,0.2 0.62,0.19 0.76,0.57l1.8 0.64c0.54,1.22 1.62,1.59 2.38,1.24 0.37,-0.16 0.45,-1.97 1.02,1.07 1.39,-2.3 0.19,-1.71 2.87,-1.97l5.93 -1.09c-1.37,-1.17 -1.02,-0.29 1.4,-1.14 1.86,-0.66 1.46,-0.62 3.28,-0.4l-1.15 0.91c-0.17,0.18 -0.39,0.47 -0.54,0.65 -0.18,0.19 -0.43,0.48 -0.62,0.73l4.39 -0.15 -0.01 -1.82 5.31 2.79c-3.39,-10.98 -21.13,-10.93 -26.82,-2.03z"/>
   <path class="fil0" d="M916.64 278.17l-0.97 0.57c-0.08,0.06 -0.3,0.22 -0.39,0.28 -0.08,0.05 -0.25,0.2 -0.32,0.25 -0.06,0.04 -0.21,0.17 -0.26,0.21 -0.04,0.03 -0.19,0.14 -0.23,0.17 -0.03,0.02 -0.18,0.1 -0.21,0.12 -0.04,0.02 -0.21,0.07 -0.24,0.09l-1.08 0.59c-1.21,1.41 -0.15,0.38 -0.17,0.44 -0.01,0.02 0.05,0.26 0.05,0.2 0,-0.05 0.03,0.18 0.09,0.03l-3.13 0.47c2.46,4.38 8.85,4.62 13.63,4.16 5.82,-0.56 9.06,-2.89 10.62,-7.19 -3.42,-3.05 -3.72,0.68 -4.74,-3.44 -1.38,2.44 -2.37,1.22 -2.61,2.59l0.12 -2.23c-1.56,1.53 -1.68,3.11 -4.44,3.75 -2.37,0.56 -4.21,-0.39 -5.72,-1.06z"/>
   <path class="fil0" d="M364.66 260.13c1.13,0 1.37,3.87 1.63,5.12l15.01 -1.55c0.2,0.01 0.41,0.05 0.6,0.06l3.88 -0.15c0.14,0.02 -0.81,-0.19 0.77,0.29l3.48 0.73c-1.62,-5.22 -4.23,-6.43 -10.44,-6.55 -2.74,-0.05 -5.52,0.07 -8.28,0 -4.15,-0.1 -5.92,-1.19 -6.65,2.05z"/>
   <path class="fil0" d="M459.84 265.49c1.6,-1.21 0.34,0.98 1.51,-1.25 1.62,1.81 3.18,1.01 6,1.41 0.03,2.49 0.54,4.31 0.52,6.51 -0.02,1.88 -0.48,3.86 -0.55,5.98l-3.99 0.83c-3.47,-0.29 1.54,-0.25 -2.81,-1.32l-0.53 6.49c1.06,1.71 -1.66,1.37 2.11,1.43l6.55 -0.05 0.03 -27.29 -8.49 -0.11 -0.35 7.37z"/>
   <path class="fil0" d="M598.68 278.35l0.82 0.24c0.07,-0.01 0.33,0.02 0.41,0.01 1.32,-0.12 3.06,-1.28 5.46,0.66 0.04,-0.13 -0.47,-0.96 -0.94,-3.01 2.74,2.1 1.05,1.66 2.31,1.16 -0.54,-6.07 -2.06,-8.07 2.29,-12.69 -1.98,-2.18 0.51,-0.24 -1.59,-1.31 -1.64,-0.83 0.79,-0.44 -1.05,-0.23 -0.16,0.02 -0.99,0.4 -1.18,0.5 -1.2,0.65 -0.34,0.09 -1.34,0.98 -2,-2.83 0.19,-0.32 0,-2.26 -1.99,1.89 -0.77,1.69 -3.66,0.45 -3.29,2.3 -4.51,12.35 -1.53,15.5z"/>
   <path class="fil0" d="M785.4 270.09c0.95,2.56 -0.14,1.37 2.99,1.87l-0.06 -12.85 6.1 0.27 -0.03 12.47 -0.56 5.73c-7.63,-0.33 -6.85,-0.41 -8.44,1.75 -2.83,-2.71 -1.28,-2.31 -3.07,-0.86 2.7,6.49 6.36,8.12 13.25,6.76l-0.14 -27.1 -8.04 0.25c-0.01,17.18 0.64,10.21 -2,11.71z"/>
   <path class="fil0" d="M162.81 127.06l0.32 40.03c-1.09,1.76 2.33,0.83 -1.09,1.52 0.26,-0.09 2.66,-0.52 0.83,0.01 0.23,-4.56 1.09,-6.89 1.23,-11.56l1.3 5.98 0.31 -8.86c0.11,0.16 0.27,0.22 0.32,0.53 0.05,0.31 0.26,0.41 0.33,0.54l1.4 5.84c0.16,2.41 0.22,5.1 0.28,7.53 -1.73,-1.3 -0.51,-44.71 -0.42,-47.23l-0.32 -0.21 -0.38 11.75 -1.52 -6.71c-1.23,2.19 -2,3.84 -1.4,6.76l-1.19 -5.92z"/>
   <path class="fil0" d="M477.08 281.49c1.01,2.03 1.92,2.84 4.88,3.7 2.3,0.65 4.78,0.79 7.17,0.66 5.3,-0.28 8.87,-1.82 10.35,-5.99 -2.83,-0.93 -2.21,0.08 -4.44,0.1 -1.72,0.01 -0.87,0.07 -2.17,-0.34 -2.44,-0.77 -0.28,0.49 -1.52,-0.88 -3.8,0.83 -4.92,0.34 -7.85,-0.6 -0.02,2.93 1.87,-0.19 -0.74,1.7 -0.96,-3.45 1,-1.67 -2.38,-1.61 -0.09,0 -2.5,0.65 -2.67,0.66l-0.33 1.32c-0.76,3.14 1.52,-1.7 -0.3,1.28z"/>
   <path class="fil0" d="M650.46 260.13l0.49 4.52c4.85,-0.9 7.68,-2.56 7.76,3.75 0.09,7.13 -3.41,4.99 -7.84,4.52l-3.47 -1.55c0.01,0.25 0.24,1.32 0.24,1.45 -0.1,2.85 1.55,-1.41 -0.26,1.01 -1.54,-1.11 -1.12,-0.41 -1.82,-2.05 -1.95,4.11 0.71,0.56 -3.32,2.91l2.63 3.64 6.9 -0.73c7,1.11 0.03,0.27 6.85,-0.34l-0.22 -19.37c-3.83,0.91 -7.53,-1.67 -7.94,2.24z"/>
   <path class="fil0" d="M300.14 280.67c1.06,2.15 1.96,3.63 5.42,3.8l2.02 0.34c0.13,-1.08 -0.31,0.49 -0.8,-1.74 7.25,0.22 5.94,1.37 9.04,2.13l-0.08 -0.13c-0.02,-0.03 -0.11,-0.19 -0.14,-0.24 -0.84,-1.52 0.2,0.54 -0.84,-1.56 4.3,0.79 2.73,0.59 6.32,-0.22 2.6,-0.71 2.15,-0.73 3.05,-3.03l-0.58 -1.84 -1.73 1.06c-0.12,0.05 -0.34,0.16 -0.45,0.2 -0.09,0.04 -0.3,0.09 -0.38,0.11l-1.72 -0.24c-2.97,-0.48 -2.67,0.38 -2.7,0.4 -1.05,-0.73 -2.58,2.41 -0.37,-1.47 -4.5,1.58 -5.72,1.22 -9.48,-0.78 -1.9,1.02 -4.7,-2.7 -3.05,-0.98 -1.43,0.9 -0.07,0.12 -1.64,1.21 -0.15,0.1 -0.56,0.33 -0.67,0.42l-0.57 0.55c-2.98,5.62 2.82,-0.85 -0.65,2.01z"/>
   <path class="fil0" d="M519.88 269.88c1.41,-0.95 3.32,-1.93 5.12,-1.46l1.57 3.71 -2.81 1.28c-4.32,1.28 -3.64,-0.39 -3.88,-3.53zm-0.76 12.79l0.48 -3.4c0.13,0.13 0.35,0.17 0.43,0.43 0.07,0.23 0.36,0.32 0.45,0.36 2.37,1.05 2.2,-1.12 4.43,-0.86 0.21,0.02 1.47,0.81 1.7,0.97l1.51 -2.56 0.01 -12.47 -1.21 -2.41c-1.38,2.5 -3.33,0.55 -5.78,0.1l-1.35 2.13 -0.62 -4.83 -0.05 22.54z"/>
   <path class="fil0" d="M892.67 259.19l8.12 -0.17 0.13 9.33 -0.75 8.55c0.64,-2.38 0.02,-1.99 -2.92,-1.89 -2.55,0.08 -2.63,0.44 -3.4,2.05 0.39,-4.34 0.44,-0.66 -1.26,-2.1l0.27 10.49c2.93,0.2 6.17,0.46 8.18,-0.54 1.11,-3.02 0.97,-22.46 0.27,-26.72 -2.07,-0.23 -8.19,-1.23 -8.64,1z"/>
   <path class="fil0" d="M600.21 262.85c2.89,1.24 1.67,1.44 3.66,-0.45 0.19,1.94 -2,-0.57 0,2.26 1,-0.89 0.14,-0.33 1.34,-0.98 0.19,-0.1 1.02,-0.48 1.18,-0.5 1.84,-0.21 -0.59,-0.6 1.05,0.23 2.1,1.07 -0.39,-0.87 1.59,1.31l5.62 0.19c0.18,-0.19 0.36,-0.78 0.46,-0.62l0.89 -1.09c0.17,-0.13 0.74,-0.55 0.94,-0.63 3.42,-1.43 -4.45,-0.97 2.28,-0.07l5.78 1.36c-2.66,-3.37 -5.14,-5.75 -11.36,-5.97 -6.4,-0.22 -11.05,0.53 -13.43,4.96z"/>
   <path class="fil0" d="M617.59 266.78l7.88 -0.65 0.84 4.97 -7.22 0.99 -1.5 -5.31zm-2.94 -1.87c4.24,3.12 2.89,9.25 1.66,13.4 1.68,1.2 4.26,0.03 6.31,-0.68l1.02 3.97c3.42,-5.05 4.42,-11.5 1.36,-17.74l-5.78 -1.36c-6.73,-0.9 1.14,-1.36 -2.28,0.07 -0.2,0.08 -0.77,0.5 -0.94,0.63l-0.89 1.09c-0.1,-0.16 -0.28,0.43 -0.46,0.62z"/>
   <path class="fil0" d="M722.42 259.68l0.01 17.57 -0.04 0.09 1.68 -5.63 2.07 0.42c-0.76,-2.98 -0.26,-0.86 -0.2,-0.91l0.95 -0.14c4.1,-0.61 -0.13,1.82 1.53,-0.45 0.99,1.06 0.5,0.74 2.26,1.5 0.36,-4.77 0.23,-8.18 -0.79,-12.75 -2.78,-0.24 -5.77,-0.32 -7.47,0.3z"/>
   <path class="fil0" d="M473.86 268.86c-0.42,2.68 -0.36,5.18 0.25,7.74 0.23,0.99 0.59,2.31 1.25,3.32 1.09,1.67 1.24,1.3 1.72,1.57 1.82,-2.98 -0.46,1.86 0.3,-1.28l0.33 -1.32c0.17,-0.01 2.58,-0.66 2.67,-0.66 3.38,-0.06 1.42,-1.84 2.38,1.61 2.61,-1.89 0.72,1.23 0.74,-1.7 -0.32,-2.23 -0.98,-6.06 -0.81,-9.42 -0.86,-2.64 0.26,-1.03 -1.49,-2.52 -1.16,4.02 0.53,0.55 -5.54,1.84 -3.94,0.84 0.03,-0.77 -1.8,0.82z"/>
   <path class="fil0" d="M459.84 265.49l0.15 18.65 0.53 -6.49c4.35,1.07 -0.66,1.03 2.81,1.32l3.99 -0.83c0.07,-2.12 0.53,-4.1 0.55,-5.98 0.02,-2.2 -0.49,-4.02 -0.52,-6.51 -2.82,-0.4 -4.38,0.4 -6,-1.41 -1.17,2.23 0.09,0.04 -1.51,1.25z"/>
   <path class="fil0" d="M722.42 259.68c1.7,-0.62 4.69,-0.54 7.47,-0.3 1.02,4.57 1.15,7.98 0.79,12.75l-0.79 5.31 -5.72 -1.55c-0.24,2.85 0.3,0.74 -1.78,1.45l0.04 -0.09 0.18 8.42 9.05 -0.69 -0.63 -26.85 -8.39 -0.51 -0.22 2.06z"/>
   <path class="fil0" d="M777.48 272.56c0.39,1.51 0.05,0.68 0.88,2.12 0.41,0.69 0.66,0.99 1.32,1.71 1.2,1.32 1.51,1.57 2.65,2.08 1.79,-1.45 0.24,-1.85 3.07,0.86 1.59,-2.16 0.81,-2.08 8.44,-1.75l0.56 -5.73c-1.3,0.13 -0.08,-1.58 -1.26,1.55 -0.74,-2.79 -1.65,-2.59 -4.75,-1.44 -3.13,-0.5 -2.04,0.69 -2.99,-1.87l0.12 0.12c-1.72,-0.33 0.54,1.26 -2.86,-0.83 1.12,2.03 0.51,1.05 0.44,1.54 -0.01,0.05 -0.05,0.25 -0.08,0.3 -0.02,0.04 -0.17,0.17 -0.21,0.2l-1.7 0.19c-3.89,0.19 -0.94,-1.35 -3.63,0.95z"/>
   <path class="fil0" d="M568.4 264.86c0.11,0 0.29,-0.2 0.32,-0.09l2.54 -0.01c5.12,-0.13 2.77,-1.69 4.7,-0.13l1.51 0.02c0.29,-3.67 3.72,-0.42 12.25,-1.28l0.88 -0.13c0.08,-0.01 0.32,-0.08 0.48,-0.08 -1.73,-2.57 -3.96,-4.59 -8.55,-4.13l-13.92 0.37 -0.21 5.46z"/>
   <path class="fil0" d="M698.26 273.38c2.37,1.9 6.09,1.94 9.79,3.34 4.77,0.62 7.43,0.39 7.59,3.32 0.88,-3.85 -0.05,-0.24 1.49,-1.9l-0.14 -5.25c-1.41,-0.7 -1.65,-1.97 -4.68,-3.39 -1.5,1.88 0.24,1.35 -2.79,1.77 -3.13,0.44 0.71,-0.22 -2.4,-0.34 -4.85,-0.19 -0.77,-0.15 -2.6,0.52 -1.85,0.68 1.33,2.85 -0.88,0.27 -2.33,0.34 -3.65,-0.03 -5.26,-0.82 -1.25,2.36 0.12,-0.44 0.32,1.84 0.08,0.89 2.32,-0.32 -0.44,0.64z"/>
   <path class="fil0" d="M692.52 265.38c-0.33,4.69 1.87,7.81 5.74,8 2.76,-0.96 0.52,0.25 0.44,-0.64 -0.2,-2.28 -1.57,0.52 -0.32,-1.84 1.61,0.79 2.93,1.16 5.26,0.82 2.21,2.58 -0.97,0.41 0.88,-0.27 1.83,-0.67 -2.25,-0.71 2.6,-0.52 3.11,0.12 -0.73,0.78 2.4,0.34 3.03,-0.42 1.29,0.11 2.79,-1.77 -3.36,-0.73 -7.71,-1.39 -10.45,-3.19 -2.56,-1.63 -1.37,0.16 -0.85,-2.72l-1.69 0.94c-2.21,0.85 -2.92,-0.23 -3.5,2.09 0.53,-2.6 0,-1.63 -0.98,-2.75 -0.77,3.32 -0.54,0.97 -0.33,4.17l-0.71 -4.11c0.22,3.38 0.39,-0.04 -1.28,1.45z"/>
   <path class="fil0" d="M317.1 275.14c-0.07,0.26 -0.18,0.37 -0.22,0.78 -0.04,0.38 -0.16,0.56 -0.21,0.72 -0.12,0.41 -0.46,1.57 -0.47,1.6 -2.21,3.88 -0.68,0.74 0.37,1.47 0.03,-0.02 -0.27,-0.88 2.7,-0.4l1.72 0.24c0.08,-0.02 0.29,-0.07 0.38,-0.11 0.11,-0.04 0.33,-0.15 0.45,-0.2l1.73 -1.06 0.58 1.84 1.26 -1.33c1.6,-2.74 1.17,-7.31 0.87,-10.31 -2.25,0.13 -3.49,0.71 -7.44,0.54 0,0.02 -0.4,6.21 -1.72,6.22z"/>
   <path class="fil0" d="M331.65 275.11l0.47 4c0.25,-0.17 0.7,-0.64 0.78,-0.44l8.42 0.8c3.05,0.9 0.69,0.8 2.12,-0.14 -1.21,-0.64 -1.46,-0.18 -2.14,-2.15 -2.44,-1.45 -1.55,-8.8 -1.56,-11.53l-0.05 -0.1 -0.45 3.02 -4.29 -0.2c-0.14,0 -0.49,-0.11 -1.47,0.37 -0.43,0.21 -0.67,0.48 -0.92,0.72l-0.78 -3.8 0.2 0.17 -0.33 9.28z"/>
   <path class="fil0" d="M400.97 263.13c1.55,1.15 0.87,-1.86 1.53,2.42 1.36,-1.47 1.22,-1.37 4.02,-1.53l0.69 2.15 1.2 0c2.54,-2.02 -0.54,0 2.52,0.17 0.01,0 2.22,-0.3 2.25,-0.31 2.35,-1.03 0.75,0.06 2,-1.6l-2.33 -6.38 -9.83 0.04 -2.05 5.04z"/>
   <path class="fil0" d="M408.41 266.17c-0.1,2.49 0.72,5.05 1.76,7.39 1.87,2.21 0.86,0.07 0.17,3.07 2.76,-0.45 0.81,-0.47 3.44,-0.27l3.31 0.27c0.13,-0.21 0.43,-0.68 0.48,-0.56 0.06,0.13 0.33,-0.65 0.77,-1.66 0.05,-3.12 -2.08,-7.29 -3.16,-9.98 -1.25,1.66 0.35,0.57 -2,1.6 -0.03,0.01 -2.24,0.31 -2.25,0.31 -3.06,-0.17 0.02,-2.19 -2.52,-0.17z"/>
   <path class="fil0" d="M441.12 279.22c0.72,2.06 2.27,4.34 3.91,5.46 2.06,1.41 5.23,0.92 8.26,0.81l0.18 -7.86c-2.3,-0.13 -5.57,-0.26 -7.86,-0.09 -2.38,0.18 -2.87,0.31 -4.49,1.68z"/>
   <path class="fil0" d="M644.87 278.33c1.66,2.65 4.8,4.66 5.25,6.99l8.41 0.18 0.09 -8.24c-6.82,0.61 0.15,1.45 -6.85,0.34l-6.9 0.73z"/>
   <path class="fil0" d="M305.56 284.47c3.63,3.7 1.35,-2.92 10.26,6.34l9.4 -0.01c-0.63,-2.18 -1.19,-3.02 -4.43,-4.96l0.29 -2.79c-3.59,0.81 -2.02,1.01 -6.32,0.22 1.04,2.1 0,0.04 0.84,1.56 0.03,0.05 0.12,0.21 0.14,0.24l0.08 0.13c-3.1,-0.76 -1.79,-1.91 -9.04,-2.13 0.49,2.23 0.93,0.66 0.8,1.74l-2.02 -0.34z"/>
   <path class="fil0" d="M973.62 269.22c0.95,-0.79 0.46,0 1.18,-1.23 0.71,-1.23 0.41,-0.5 0.75,-2.16 -0.03,0.37 -0.3,0.05 0.1,1.29l0.73 1.65c0.08,0.15 0.22,0.4 0.35,0.59l1.1 -0.45c0.1,-0.04 0.33,-0.11 0.44,-0.15l2.08 -1.06c0.36,2.34 0.08,2.15 1.48,3.74l-0.29 -0.16 0.12 -12.65 -7.89 -0.24 -0.15 10.83z"/>
   <path class="fil0" d="M568.4 264.86c-1.05,7.34 0.15,7.67 -0.14,10.89l-0.23 1.16c-0.02,0.13 -0.08,0.37 -0.16,0.54l0.22 -3.06c3.63,1.67 3.59,-1.01 6.15,0.17 1.48,0.69 1.37,-0.71 1.83,2.08l-0.11 -12.01c-1.93,-1.56 0.42,0 -4.7,0.13l-2.54 0.01c-0.03,-0.11 -0.21,0.09 -0.32,0.09z"/>
   <polygon class="fil0" points="892.67,259.19 892.43,268.66 900.92,268.35 900.79,259.02 "/>
   <path class="fil0" d="M925.67 266.16l1.13 9.32 -0.12 2.23c0.24,-1.37 1.23,-0.15 2.61,-2.59 1.02,4.12 1.32,0.39 4.74,3.44 1.7,-2.44 1.32,-3.61 1.35,-7.52l-1.69 -3.58c-0.01,0.04 -0.54,1.24 -0.65,1.43l-0.77 -1.5c-1.47,3.44 0.65,1.16 -2.41,1.71 -0.89,-6.48 -1.73,-1.18 -0.49,-2.97 -0.74,4.04 0.42,2.01 -2.29,3.9 0.12,-2.2 -0.25,-2.1 -1.41,-3.87z"/>
   <path class="fil0" d="M788.39 271.96c3.1,-1.15 4.01,-1.35 4.75,1.44 1.18,-3.13 -0.04,-1.42 1.26,-1.55l0.03 -12.47 -6.1 -0.27 0.06 12.85z"/>
   <path class="fil0" d="M297.16 269.88c-0.21,2.38 -0.22,3.92 0.36,6.36l1.89 3.92c0.06,0.06 0.32,0.38 0.36,0.27 0.04,-0.1 0.24,0.17 0.37,0.24 3.47,-2.86 -2.33,3.61 0.65,-2.01l0.57 -0.55c0.11,-0.09 0.52,-0.32 0.67,-0.42 1.57,-1.09 0.21,-0.31 1.64,-1.21 -1.65,-1.72 1.15,2 3.05,0.98l-1.04 -8.77 -1.7 1.04c-3.18,1.3 -3.09,-1.92 -3.31,2.03 -0.21,-0.18 -0.43,-0.47 -0.57,-0.61 -0.12,-0.13 -0.37,-0.41 -0.51,-0.53l-2.43 -0.74z"/>
   <path class="fil0" d="M842.06 271.75c0.26,4.54 0.35,5.77 2.24,8.77 0.81,-0.96 1.31,0.45 0.2,-3.23 5.15,0.41 4.19,-0.1 4.73,-1.33l1.4 2.26c2.31,2.46 1.74,0.98 2.25,0.53 -1.72,-2.63 -2.45,-7.15 -1.1,-11.12l-1.65 1.95c-0.08,0.1 -0.22,0.31 -0.3,0.4 -1.18,1.33 -0.5,0.69 -1.3,0.83l-1.57 -0.01c-1.78,-0.61 -0.28,0.44 -1.39,-1.38 -0.03,4.55 0.21,0.15 -1.39,3.89l0.33 -3.33 -2.45 1.77z"/>
   <path class="fil0" d="M957.42 278.83c2.62,1.22 1.39,-1.43 2.89,-0.05 0.8,0.73 0.27,0.9 0.25,1.05 0.38,-0.99 0.18,-0.77 0.64,-1.36 0.77,-0.98 0.48,-0.54 1.23,-1.18l0.75 1.65 2.79 -1.75 1.47 1.63c0.7,-2.88 0.87,-2.02 0.95,-5.93l-1.2 -2.44c-0.04,-0.27 -0.16,-0.36 -0.27,-0.52 -0.81,1.75 -0.05,1.04 -2.21,1.41 -0.39,0.06 -2.98,-0.04 -3.62,-0.04l-1.92 -3.35c0.19,1.77 0.4,4.68 0.23,6.44 -0.28,3.05 -0.75,2.62 -1.98,4.44z"/>
   <path class="fil0" d="M768.19 279.77l0.18 5.78 7.93 -0.06 0.15 -8.86c-2.41,1.42 0.9,0.7 -3,0.91 -1.05,0.05 -2.83,-0.06 -4.03,-0.04l-0.34 -3 -0.89 5.27z"/>
   <path class="fil0" d="M974.25 285.58l-0.41 -8.55 -0.22 -7.81 0.15 -10.83 7.89 0.24 -0.12 12.65 0.13 7.53 14.44 0.59c-1.25,-1.75 1.25,-1.01 -2.87,-1.38l-10.83 0 -0.1 -19.77c-2.89,-1.37 -6.24,-1.09 -9.38,-0.38l-0.08 25.55c0.39,2.24 -0.58,1.34 1.4,2.16z"/>
   <path class="fil0" d="M426.27 284.14c1.13,1.84 -1.04,1.23 3.52,1.54 0.92,0.06 3.33,-0.12 4.5,-0.13l-0.02 -8.63c-1.62,1.02 -4.46,0.73 -7.29,0.5l-0.71 6.72z"/>
   <path class="fil0" d="M939.7 274.55c3.12,3.76 0.82,3.81 2.3,0.75l0.61 2.57c4.49,-1.83 5.4,2.34 5.38,-2.06l0.55 -7.72c-1.46,1.1 -1.21,-1.21 -1.03,2.47 -2.75,-1.79 -1.87,-1.07 -3.93,-0.22l-3.55 -0.46c-0.62,2.68 -0.94,2.28 -0.33,4.67z"/>
   <path class="fil0" d="M349.56 265.33c1.02,-1.02 0.68,1 1.51,-2.95 -0.14,0.13 -2.43,-0.63 0.76,3.01l3.41 -0.78c2.3,-0.35 -1.18,0.07 3.34,0.92l-0.16 -7.36 -8.58 -0.07 -0.28 7.23z"/>
   <path class="fil0" d="M426.19 265.45l0.26 2.15c2.67,-0.03 5.28,-0.02 7.93,0.04 0.66,0.02 3.1,0.08 3.59,0 2.38,-0.36 0.2,0.51 2.44,-1.11 -0.75,-1.62 -0.7,-1.83 -2.26,-3.52 -0.43,-0.47 -0.61,-0.63 -1.1,-1.03 -0.88,-0.73 -0.57,-0.44 -1.16,-0.73 -0.1,0.18 0,1.55 -1.34,2.19l-8.01 -0.22 -0.35 2.23z"/>
   <path class="fil0" d="M882.9 278.86c-2.06,0.39 -1.69,0.55 -3.78,0.05 -2.88,-0.69 -0.6,-0.24 -3.23,-1.25l-0.97 2.87 -1.02 -2.4 0.16 7.44 8.74 -0.03 0.1 -6.68z"/>
   <path class="fil0" d="M545.25 275.23c0.7,1.21 1.32,1.98 2.29,3.01 0.3,0.32 0.75,0.77 1.1,1.06 0.97,0.8 0.42,0.38 1.17,0.71 1.02,-1.26 0.24,-1.45 -0.38,-2.72l4.53 0.56c1.94,0.02 3.56,-0.3 5.91,-0.32l0.84 -3.7 -12.89 -0.04c-2.99,0.65 0.83,-0.54 -1.59,0.69l-0.98 0.75z"/>
   <path class="fil0" d="M399.07 269.13c-1.38,1.49 -1.95,3.96 -1.91,6.19l0.73 2.04c4.66,-1.51 3.73,0.99 5.15,-1.31 2.82,0.63 0.96,1.62 1.66,-0.65l1.13 -4.26c-1.05,-1.14 -1.47,-1.25 -2.58,-2.86l-1.91 1.69c-0.1,-0.17 -0.25,-0.39 -0.29,-0.49l-0.47 -2.43c0,2.56 0.74,2.08 -1.51,2.08z"/>
   <path class="fil0" d="M915 270.6l-1.18 4.9c-0.59,-1.68 0.06,-1.39 -2.53,-0.98 -5.07,0.8 -3.92,0.25 -4.97,1.63 0.57,1.64 0.68,2.29 1.43,3.49 0.05,0.08 0.92,1.16 0.94,1.18 0.9,0.93 0.49,0.44 1.09,0.77l3.13 -0.47c-0.06,0.15 -0.09,-0.08 -0.09,-0.03 0,0.06 -0.06,-0.18 -0.05,-0.2 0.02,-0.06 -1.04,0.97 0.17,-0.44l1.08 -0.59c0.03,-0.02 0.2,-0.07 0.24,-0.09 0.03,-0.02 0.18,-0.1 0.21,-0.12 0.04,-0.03 0.19,-0.14 0.23,-0.17 0.05,-0.04 0.2,-0.17 0.26,-0.21 0.07,-0.05 0.24,-0.2 0.32,-0.25 0.09,-0.06 0.31,-0.22 0.39,-0.28l0.97 -0.57c-1.97,-3.24 -1.53,-5.22 -1.36,-9.87l-0.28 2.3z"/>
   <path class="fil0" d="M883.02 267.68l-0.11 -6.67c-4.58,0.23 -5.12,-0.46 -8.82,2.12l0.06 3.76c0.23,0.04 0.52,-0.17 0.56,-0.02 0.32,1.16 1.05,-2.33 1.04,0.01l4.42 1.39c1.74,0.36 1.32,0.46 2.85,-0.59z"/>
   <path class="fil0" d="M638.55 276.61l-0.18 3.81c-1.85,0.53 -2.29,-0.04 -5.32,0.01l-0.32 -3.42 -1.28 0.45 0.04 8.14 8.09 -0.26c0.37,-6.14 -0.97,-10.42 1.54,-11.88l-1.22 -0.86c-0.66,0.8 -0.57,0.47 -1.07,1.79 -0.01,0.04 -0.27,2.1 -0.28,2.22z"/>
   <path class="fil0" d="M973.62 269.22l0.22 7.81c1.77,-0.48 -0.14,0.1 1.06,-0.72 0.06,-0.04 0.24,-0.2 0.31,-0.24l0.63 -0.4c1.36,-0.66 1.9,-0.04 4,-2.07l1.05 4.12 0.94 -6.28c-1.4,-1.59 -1.12,-1.4 -1.48,-3.74l-2.08 1.06c-0.11,0.04 -0.34,0.11 -0.44,0.15l-1.1 0.45c-0.13,-0.19 -0.27,-0.44 -0.35,-0.59l-0.73 -1.65c-0.4,-1.24 -0.13,-0.92 -0.1,-1.29 -0.34,1.66 -0.04,0.93 -0.75,2.16 -0.72,1.23 -0.23,0.44 -1.18,1.23z"/>
   <path class="fil0" d="M519.12 282.67l0.16 2.54 8.75 0.73 0.09 -8.33 -1.51 2.56c-0.23,-0.16 -1.49,-0.95 -1.7,-0.97 -2.23,-0.26 -2.06,1.91 -4.43,0.86 -0.09,-0.04 -0.38,-0.13 -0.45,-0.36 -0.08,-0.26 -0.3,-0.3 -0.43,-0.43l-0.48 3.4z"/>
   <path class="fil0" d="M754.61 281.62l0.89 3.95 9.05 0 -2.42 -6.92c-3.04,3.24 1.79,0.77 -2.12,0.87l-1.34 -0.4c-2.99,-0.54 -3.19,1.76 -4.06,2.5z"/>
   <path class="fil0" d="M357.6 278.89l0.57 -1.07 0.39 -5.68 -2.72 -1.97c-2.34,1.02 -0.76,-0.73 -1.76,1.21 -1.7,3.29 0.04,0.87 0.22,1.08 -1.75,-0.66 -0.7,-1.17 -4.72,-0.91 0.11,5.18 -0.56,2.97 2.25,5.82 1.29,-1.51 0.75,-2.51 0.75,-2.55 0.87,2.08 0.37,0.87 2.06,2 2.95,1.96 2.14,-1.73 1.67,3.31l1.29 -1.24z"/>
   <path class="fil0" d="M825.63 274.95l3.8 1.73 2.19 1.96c2.93,-4 -2.2,0.88 1.23,-0.97l2.33 -1.04c3.1,1.1 0.4,2.55 3.3,2.26 0.5,-3.44 0.73,-5.2 -1.69,-6.61 -0.62,2.4 0.75,-1.01 -0.44,0.84l-0.93 1.23c-0.05,-0.12 -0.26,0.27 -0.35,0.43 -0.23,-1.14 -0.18,-0.85 -1.66,-2.03l-4.5 1.19c-0.04,-0.05 -0.04,-0.16 -0.05,-0.17 -0.83,-0.98 -0.98,-0.77 -2.57,-0.77 -0.26,1.23 -0.05,4.58 0.81,1.38l-1.47 0.57z"/>
   <path class="fil0" d="M331.98 265.83l-0.2 -0.17c0.08,-0.04 3.37,-1.42 3.38,-1.42 3.04,-0.42 0.95,-0.7 1.55,1.12l2.98 0.19 0.05 0.1 -0.18 -6.83c-2.57,-0.43 -5.19,-0.63 -7.52,0.34l-0.06 6.67z"/>
   <path class="fil0" d="M313.57 264.56c4.43,1.25 4.5,6.31 3.53,10.58 1.32,-0.01 1.72,-6.2 1.72,-6.22 3.95,0.17 5.19,-0.41 7.44,-0.54l-0.63 -2.25 -5.31 -2.79 0.01 1.82 -4.39 0.15c0.19,-0.25 0.44,-0.54 0.62,-0.73 0.15,-0.18 0.37,-0.47 0.54,-0.65l1.15 -0.91c-1.82,-0.22 -1.42,-0.26 -3.28,0.4 -2.42,0.85 -2.77,-0.03 -1.4,1.14z"/>
   <path class="fil0" d="M426.1 265.45l0.09 0 0.35 -2.23 8.01 0.22c1.34,-0.64 1.24,-2.01 1.34,-2.19 -1.78,-4.37 -3.84,-3.21 -9.46,-3.08l-0.33 7.28z"/>
   <path class="fil0" d="M519.17 260.13l0.62 4.83 1.35 -2.13c2.45,0.45 4.4,2.4 5.78,-0.1l1.21 2.41 -0.3 -7.06 -8.94 0.34 0.28 1.71z"/>
   <path class="fil0" d="M906.32 276.15c1.05,-1.38 -0.1,-0.83 4.97,-1.63 2.59,-0.41 1.94,-0.7 2.53,0.98l1.18 -4.9c-2.23,-1.9 -1.44,2.34 -1.92,-2.19 -1.42,1.47 -2.16,0.89 -6.73,0.9l0.87 -2.28c-1.19,1.31 -0.48,-0.52 -1.02,2.13 -0.08,0.41 -0.11,1.74 -0.12,2.2 -0.01,1.45 0.15,3.39 0.24,4.79z"/>
   <path class="fil0" d="M331.65 275.11l0.33 -9.28 0.06 -6.67c2.33,-0.97 4.95,-0.77 7.52,-0.34l0.18 6.83c0.01,2.73 -0.88,10.08 1.56,11.53l-0.97 -19.02c-2.92,-0.84 -6.25,-0.89 -9.13,0.04 -0.3,4.64 -1.37,13.32 0.45,16.91z"/>
   <path class="fil0" d="M491.35 278.74c1.24,1.37 -0.92,0.11 1.52,0.88 1.3,0.41 0.45,0.35 2.17,0.34 2.23,-0.02 1.61,-1.03 4.44,-0.1l1.53 -2.81 0.02 -2.55 -7.43 -0.16c-0.12,0.18 -0.28,0.23 -0.32,0.49l-1.13 1.96c-0.66,1.31 -0.58,1.04 -0.8,1.95z"/>
   <path class="fil0" d="M631.45 265.19c1.93,-0.72 0.39,0.18 1.87,-1.65 1.47,-1.81 4.92,-0.62 6.83,-0.85l1.41 -0.28c0.1,-0.01 0.36,-0.06 0.53,-0.03 -1.03,-1.9 -1.37,-3.38 -3.75,-4.06 -2.01,-0.57 -4.8,-0.18 -6.59,0.49l-0.3 6.38z"/>
   <path class="fil0" d="M873.9 278.13l1.02 2.4 0.97 -2.87c2.63,1.01 0.35,0.56 3.23,1.25 2.09,0.5 1.72,0.34 3.78,-0.05l-0.04 -2.22 -0.25 -1.51c-2.64,-1.63 -2.61,-1.21 -4.93,-1.15 -3.27,0.07 -2.96,-1.09 -3.82,-1.85l0.04 6z"/>
   <path class="fil0" d="M412.58 281.52l0.86 4.03 9.24 0.06c-0.24,-1.2 -0.31,-2.11 -0.82,-3.25 -1.09,-2.43 -0.39,-0.86 -1.35,-1.75l-0.42 1.14c0.09,-1.37 -0.02,-1.3 -0.43,-2.51 -0.16,0.2 -0.39,0.44 -0.53,0.58 -0.13,0.15 -0.42,0.45 -0.56,0.6 -0.14,0.15 -0.47,0.75 -0.59,0.59 -0.12,-0.16 -0.43,0.38 -0.64,0.61l-0.92 0.4 -2.34 -1.61c0,1.25 0.24,0.67 -1.5,1.11z"/>
   <path class="fil0" d="M769.08 274.5l0.34 3c1.2,-0.02 2.98,0.09 4.03,0.04 3.9,-0.21 0.59,0.51 3,-0.91 0,-1.86 -0.6,-3.3 1.03,-4.07 -0.19,-0.07 -0.42,-0.18 -0.54,-0.23 -0.12,-0.04 -0.37,-0.2 -0.52,-0.25l-2.38 -0.56c-1.12,-0.11 -3.11,0.03 -4.24,0.08l-0.72 2.9z"/>
   <path class="fil0" d="M378.06 278.14l1.49 3c0.79,0.29 1.23,0.28 1.36,0.29l1.38 -0.03c0.08,-0.01 0.31,-0.04 0.39,-0.06 0.08,-0.01 0.3,-0.09 0.39,-0.11 3.8,-0.91 -2.02,-0.35 1.18,-0.38l2.12 0.52c0.89,-0.03 1.01,-0.95 1.98,1.32l-0.13 -1.44c-0.19,-2.43 -0.08,-1.94 -1.66,-4 -2.91,1.2 0.25,0.86 -2.37,-0.84 -3.13,-2.03 -4.42,0.9 -6.13,1.73z"/>
   <path class="fil0" d="M379.55 281.14l1.67 4.4 9.54 0.04c-0.55,-2.59 -0.62,-2.88 -2.54,-4.33l0.13 1.44c-0.97,-2.27 -1.09,-1.35 -1.98,-1.32l-2.12 -0.52c-3.2,0.03 2.62,-0.53 -1.18,0.38 -0.09,0.02 -0.31,0.1 -0.39,0.11 -0.08,0.02 -0.31,0.05 -0.39,0.06l-1.38 0.03c-0.13,-0.01 -0.57,0 -1.36,-0.29z"/>
   <polygon class="fil0" points="619.09,272.09 626.31,271.1 625.47,266.13 617.59,266.78 "/>
   <path class="fil0" d="M445.43 265.28l0.48 0 0.75 -2.45c1.27,1.42 1.61,0.8 3.26,0.18 2.83,-1.07 -0.19,-0.92 3.54,0.3l-0.04 -5.06c-2.97,-0.07 -5,-0.43 -7.66,0.59l-0.33 6.44z"/>
   <path class="fil0" d="M593.42 273.44l-0.42 -6.88c-1.99,1.08 -1.26,-1.92 -1.79,1.82l-2.26 -0.61c-0.12,0.07 -0.46,0.25 -0.57,0.29 -1.48,0.48 -0.03,0.27 -2.07,-1.62 0,0.07 0.09,2.41 0.04,2.51l-0.35 0.1c-0.06,0.02 -0.33,-0.02 -0.4,-0.02 -0.11,0.02 -0.46,0.03 -0.56,0.04 -0.12,0.01 -0.45,-0.01 -0.66,0.06l2.22 4.77 2.12 -3.55c-0.23,3.25 0.21,-0.38 1.71,3.31l1.96 -3.22c-0.96,3.57 0.61,2.62 1.03,3z"/>
   <path class="fil0" d="M722.39 277.34c2.08,-0.71 1.54,1.4 1.78,-1.45l5.72 1.55 0.79 -5.31c-1.76,-0.76 -1.27,-0.44 -2.26,-1.5 -1.66,2.27 2.57,-0.16 -1.53,0.45l-0.95 0.14c-0.06,0.05 -0.56,-2.07 0.2,0.91l-2.07 -0.42 -1.68 5.63z"/>
   <path class="fil0" d="M445.91 265.28l0.5 3.28c4.23,-1.02 3.8,-0.37 7.07,-0.17l-0.02 -5.08c-3.73,-1.22 -0.71,-1.37 -3.54,-0.3 -1.65,0.62 -1.99,1.24 -3.26,-0.18l-0.75 2.45z"/>
   <path class="fil0" d="M534.26 284.14c1.06,1.72 -1.07,1.34 3.51,1.54 1.22,0.06 3.59,-0.12 4.92,-0.14l-0.36 -2.9 -2.12 -1.96c-2.59,-0.63 -0.85,1.17 -6.07,0l0.12 3.46z"/>
   <path class="fil0" d="M399.07 269.13c2.25,0 1.51,0.48 1.51,-2.08l0.47 2.43c0.04,0.1 0.19,0.32 0.29,0.49l1.91 -1.69c1.11,1.61 1.53,1.72 2.58,2.86l1.38 -4.97 -0.69 -2.15c-2.8,0.16 -2.66,0.06 -4.02,1.53 -0.66,-4.28 0.02,-1.27 -1.53,-2.42l-1.9 6z"/>
   <path class="fil0" d="M297.16 269.88l2.43 0.74c0.14,0.12 0.39,0.4 0.51,0.53 0.14,0.14 0.36,0.43 0.57,0.61 0.22,-3.95 0.13,-0.73 3.31,-2.03l1.7 -1.04 1.96 -3.04c-2.68,0.26 -1.48,-0.33 -2.87,1.97 -0.57,-3.04 -0.65,-1.23 -1.02,-1.07 -0.76,0.35 -1.84,-0.02 -2.38,-1.24l-1.8 -0.64c-0.14,-0.38 -0.52,-0.37 -0.76,-0.57l-1.65 5.78z"/>
   <path class="fil0" d="M632.73 277.01l0.32 3.42c3.03,-0.05 3.47,0.52 5.32,-0.01l0.18 -3.81 0.04 -2.43c-2.06,1.85 -0.3,1.82 -3.97,0.57l-0.91 1.02c-0.1,0.11 -0.3,0.36 -0.38,0.46 -0.1,0.12 -0.45,0.58 -0.6,0.78z"/>
   <path class="fil0" d="M519.88 269.88c0.24,3.14 -0.44,4.81 3.88,3.53l2.81 -1.28 -1.57 -3.71c-1.8,-0.47 -3.71,0.51 -5.12,1.46z"/>
   <path class="fil0" d="M331.78 265.66l0.78 3.8c0.25,-0.24 0.49,-0.51 0.92,-0.72 0.98,-0.48 1.33,-0.37 1.47,-0.37l4.29 0.2 0.45 -3.02 -2.98 -0.19c-0.6,-1.82 1.49,-1.54 -1.55,-1.12 -0.01,0 -3.3,1.38 -3.38,1.42z"/>
  </g>
 </g>
</svg>
